<svg width="30" height="29" viewBox="0 0 30 29" fill="none" xmlns="http://www.w3.org/2000/svg">
<path d="M13.3407 0.0501206C16.6154 -0.22811 19.9785 0.659579 22.6846 2.52549C25.5972 4.50071 27.7468 7.5723 28.5848 10.9917C29.5598 14.8218 28.8631 19.0361 26.7057 22.3472C24.5582 25.7048 20.9721 28.1029 17.0405 28.7742C12.888 29.5327 8.43738 28.3546 5.21233 25.6297C2.68507 23.5275 0.899751 20.5465 0.278147 17.3148C-0.254025 14.6738 -0.0166427 11.8849 0.939501 9.36644C2.01378 6.50243 4.03537 4.0105 6.59907 2.34553C8.60741 1.03276 10.9481 0.232296 13.3407 0.0501206ZM13.4776 2.15562C12.231 3.77422 10.9934 5.48998 10.4733 7.49611C9.45094 7.21015 8.38108 7.1141 7.32115 7.14943C5.88362 7.22009 4.44499 7.36031 3.03396 7.65069C2.78333 7.64075 2.80873 7.94327 2.87718 8.10447C3.25588 9.16219 3.692 10.2 4.18553 11.2103C4.77622 12.4005 5.46076 13.5708 6.42904 14.4961C4.93521 15.959 4.07402 17.9154 3.28459 19.8167C3.11125 20.3047 2.84296 20.7761 2.8275 21.305C4.3114 21.5898 5.81627 21.8107 7.33108 21.8206C8.38439 21.8416 9.45536 21.8151 10.4678 21.4894C10.7902 22.7812 11.4516 23.9537 12.178 25.0567C12.8935 26.0945 13.6321 27.128 14.5099 28.0355C15.0686 27.521 15.5047 26.8928 15.9739 26.2999C17.0504 24.8303 18.1214 23.2824 18.563 21.4883C19.889 21.9144 21.3001 21.8338 22.6724 21.7897C23.856 21.7047 25.033 21.5357 26.1967 21.3094C26.1801 20.6823 25.8434 20.1258 25.6413 19.5451C24.8751 17.7366 24.036 15.8762 22.5951 14.4972C23.2753 13.8623 23.8119 13.095 24.2756 12.2934C24.9701 11.0833 25.5232 9.79815 26.0156 8.49532C26.104 8.2469 26.2254 7.99406 26.189 7.72245C26.0521 7.65952 25.9052 7.62419 25.7595 7.59548C24.3794 7.34706 22.9816 7.20132 21.5805 7.14501C20.5636 7.12403 19.539 7.22009 18.5586 7.49722C18.1523 5.81458 17.1707 4.34945 16.1727 2.96271C15.646 2.27376 15.1414 1.55941 14.5121 0.958787C14.1268 1.32203 13.8077 1.7449 13.4776 2.15562ZM15.8039 1.05484C15.7597 1.18292 15.7454 1.31872 15.7255 1.45342C15.9982 1.51856 16.2742 1.56825 16.5525 1.61131C19.348 2.03969 21.9791 3.42533 23.9421 5.45686C24.3352 5.85212 24.6565 6.31142 25.0352 6.71994C25.2317 6.94628 25.5453 6.63492 25.394 6.40969C25.0948 5.92168 24.6852 5.51206 24.2966 5.09582C22.2418 2.93732 19.4452 1.51304 16.4995 1.07582C16.2698 1.0438 16.0335 1.00405 15.8039 1.05484ZM3.49437 6.60511C3.55288 6.68571 3.66881 6.84691 3.72733 6.9264C3.88742 6.82041 4.04752 6.7089 4.16345 6.55322C6.05365 4.06018 8.88675 2.30909 11.9528 1.70295C12.4055 1.59364 12.9145 1.62345 13.2998 1.32203C13.1607 1.22929 13.0679 0.977557 12.867 1.03276C9.15284 1.47219 5.63741 3.53022 3.49437 6.60511ZM11.2506 3.33148C9.47081 3.85813 7.8202 4.81428 6.47431 6.09171C6.31863 6.22972 6.22368 6.41631 6.13756 6.6029C6.4975 6.55653 6.72494 6.26063 6.98219 6.03982C8.24086 4.90591 9.76671 4.07453 11.393 3.6064C11.5498 3.52801 11.8899 3.52249 11.7806 3.24426C11.6006 3.25088 11.4228 3.2818 11.2506 3.33148ZM17.1873 3.25309C17.269 3.48274 17.4799 3.57328 17.6963 3.62517C19.4021 4.11759 20.9909 5.02074 22.2805 6.24297C22.4538 6.41079 22.6481 6.56426 22.8944 6.61284C22.8127 6.41521 22.7111 6.22641 22.551 6.08288C21.4226 5.00639 20.0734 4.16286 18.6149 3.61192C18.1545 3.44078 17.6853 3.25861 17.1873 3.25309ZM9.0082 5.86758C8.7101 6.06852 8.34685 6.23524 8.23202 6.60842C8.83817 6.3854 9.31293 5.92168 9.90031 5.65891C10.2216 5.46127 10.682 5.40717 10.83 5.0086C10.1653 5.15102 9.58233 5.522 9.0082 5.86758ZM18.1976 5.13667C18.616 5.4414 19.1073 5.61585 19.5479 5.88304C19.9851 6.12704 20.3715 6.45716 20.8319 6.66032C20.7756 6.51568 20.748 6.34565 20.6034 6.26063C20.1805 5.93603 19.7146 5.67215 19.2498 5.4149C18.9229 5.25149 18.5807 5.0108 18.1976 5.13667ZM26.4319 8.99988C26.571 9.57291 26.8437 10.1007 27.0049 10.6682C27.7115 12.9669 27.7711 15.4588 27.1584 17.7851C26.9905 18.4962 26.6957 19.1664 26.4716 19.8586C26.5599 19.9083 26.7377 20.0077 26.8271 20.0574C27.1793 19.5925 27.3162 19.0162 27.5017 18.4741C28.4248 15.4323 28.2636 12.0538 26.9861 9.13569C26.9144 8.84973 26.6383 8.92591 26.4319 8.99988ZM2.14848 20.0916C2.31078 20.0518 2.62876 20.1137 2.56472 19.8509C2.43996 19.3298 2.17498 18.8506 2.03807 18.3306C1.22435 15.6973 1.27404 12.8057 2.19154 10.2044C2.31189 9.85114 2.48302 9.51219 2.54375 9.14011C2.41788 9.06282 2.28428 8.99989 2.14517 8.95131C0.533193 12.4314 0.570732 16.606 2.14848 20.0916ZM3.2051 17.2154C3.26251 17.4042 3.28128 17.6372 3.47781 17.7454C3.6368 17.5886 3.54736 17.3777 3.51645 17.1922C3.06377 15.3992 3.08475 13.4957 3.53412 11.7049C3.61251 11.4984 3.5838 11.3207 3.36188 11.2357C2.77892 13.1667 2.75242 15.2546 3.2051 17.2154ZM25.4636 11.3505C25.479 11.6906 25.5861 12.0152 25.6524 12.3464C25.9262 13.7927 25.9262 15.291 25.6336 16.7352C25.5541 17.0896 25.426 17.4495 25.5232 17.8161C25.8633 17.4771 25.8798 16.9758 25.9759 16.5353C26.2618 14.8008 26.232 12.9724 25.6756 11.2953C25.6226 11.3096 25.5166 11.3372 25.4636 11.3505ZM4.3942 15.8982C4.45272 15.8817 4.57196 15.8464 4.63048 15.8287C4.5543 15.153 4.5013 14.4707 4.57638 13.7916C4.59736 13.5046 4.68348 13.1822 4.45934 12.9437C4.19326 13.8998 4.26171 14.9255 4.3942 15.8982ZM24.4136 13.1491C24.5174 13.9484 24.5251 14.7577 24.4423 15.5593C24.418 15.7382 24.503 15.9027 24.5505 16.0705C24.9016 15.1386 24.7327 14.1096 24.6896 13.1391C24.6201 13.1424 24.4831 13.1469 24.4136 13.1491ZM3.61471 22.2225C3.62023 22.4124 3.61361 22.6222 3.76045 22.769C6.0139 25.7103 9.52712 27.6844 13.228 27.9881C13.2601 27.8423 13.2921 27.6966 13.323 27.5519C12.8681 27.4283 12.3967 27.3863 11.9363 27.2881C8.85253 26.683 6.03157 24.8955 4.12812 22.4013C4.02323 22.2059 3.80241 22.228 3.61471 22.2225ZM24.5626 22.8397C22.5996 25.2157 19.7587 26.8519 16.7192 27.3598C16.4122 27.4117 16.1053 27.4658 15.8061 27.5519C15.848 27.6877 15.8878 27.8269 15.9463 27.9582C16.3581 27.9903 16.7622 27.8743 17.1652 27.8037C20.3826 27.1788 23.3349 25.3272 25.32 22.7226C25.4227 22.589 25.5077 22.4389 25.5066 22.2644C25.4084 22.1364 25.2858 22.0966 25.1379 22.1463C24.9193 22.3539 24.757 22.6111 24.5626 22.8397ZM8.16136 22.3837C8.26736 22.5537 8.39212 22.716 8.56215 22.8275C9.22129 23.2857 9.92129 23.6964 10.6798 23.9681C10.6897 23.9084 10.7107 23.787 10.7206 23.7274C10.1807 23.4834 9.64195 23.2294 9.14842 22.8993C8.83486 22.6995 8.54559 22.4323 8.16136 22.3837ZM20.3384 22.6001C19.7057 23.0539 19.0212 23.4359 18.3002 23.7307C18.3024 23.7958 18.3069 23.9272 18.3091 23.9923C19.2255 23.6203 20.1695 23.1853 20.8573 22.4555C20.6696 22.4455 20.4841 22.4753 20.3384 22.6001ZM6.121 22.4234C6.23693 22.6244 6.37494 22.8154 6.54828 22.9711C7.90632 24.2319 9.55804 25.1781 11.3423 25.686C11.5299 25.7777 11.7154 25.6805 11.8954 25.6198C11.4902 25.378 11.0221 25.2885 10.5871 25.1218C9.26987 24.6338 8.04102 23.9007 6.99434 22.9644C6.72936 22.7447 6.51185 22.3925 6.121 22.4234ZM21.9172 23.0826C20.6486 24.1822 19.1239 24.9783 17.5086 25.4299C17.3463 25.4553 17.2447 25.5602 17.2513 25.7368C17.4313 25.7445 17.6113 25.7158 17.7846 25.665C19.5534 25.1362 21.2029 24.1966 22.5411 22.9225C22.7056 22.7778 22.8127 22.5835 22.8844 22.3782C22.477 22.4764 22.2253 22.8297 21.9172 23.0826Z" fill="white"/>
<path d="M14.6421 1.84961C14.9402 2.19629 15.2173 2.55954 15.5055 2.91395C15.2085 3.06853 14.9192 3.23524 14.6376 3.41631C14.6321 2.89408 14.6288 2.37184 14.6421 1.84961Z" fill="white"/>
<path d="M13.5322 2.91306C13.8182 2.56196 14.0975 2.20644 14.3846 1.85645C14.3945 2.37206 14.3912 2.88767 14.3923 3.40328C14.1119 3.22662 13.8248 3.06432 13.5322 2.91306Z" fill="white"/>
<path d="M12.416 4.52915C12.7207 4.04777 13.0487 3.58294 13.3898 3.12695C13.731 3.31354 14.1362 3.45376 14.3636 3.7883C14.4387 4.43089 14.3714 5.0834 14.3968 5.7304C13.848 5.16621 13.1348 4.82063 12.416 4.52915Z" fill="white"/>
<path d="M14.6668 3.86007C14.8335 3.4637 15.3005 3.32569 15.6472 3.12695C15.9917 3.57963 16.313 4.04997 16.6188 4.53025C15.8945 4.81842 15.1846 5.17615 14.6325 5.73923C14.6502 5.11321 14.584 4.48167 14.6668 3.86007Z" fill="white"/>
<path d="M15.0968 5.65378C15.5771 5.23423 16.1755 4.98912 16.7574 4.74512C17.0378 5.1989 17.2929 5.66814 17.5336 6.14621C16.4284 6.64967 15.2801 7.25693 14.6342 8.33342C14.6419 7.6831 14.5967 7.03059 14.6519 6.38248C14.6684 6.07996 14.8837 5.8459 15.0968 5.65378Z" fill="white"/>
<path d="M11.4971 6.14693C11.7367 5.66886 11.9939 5.20072 12.2777 4.74805C13.0461 5.07817 13.9393 5.40608 14.3545 6.18778C14.445 6.88778 14.3644 7.60102 14.392 8.30653C13.7273 7.25544 12.6034 6.63604 11.4971 6.14693Z" fill="white"/>
<path d="M11.3907 6.37891C12.5533 6.90777 13.8639 7.57022 14.3353 8.84434C14.4524 9.71106 14.3663 10.5976 14.3718 11.4732C13.8528 9.79718 12.5743 8.40933 10.9756 7.70382C11.0562 7.24562 11.2152 6.80729 11.3907 6.37891Z" fill="white"/>
<path d="M15.4788 7.69329C16.0993 7.10591 16.8744 6.7261 17.6439 6.375C17.8184 6.8067 17.9685 7.24834 18.0712 7.70322C16.4537 8.40322 15.1564 9.81204 14.6529 11.5079C14.6264 10.7549 14.6121 9.99973 14.6452 9.24674C14.6563 8.62845 15.0449 8.09959 15.4788 7.69329Z" fill="white"/>
<path d="M5.23718 7.82483C5.80358 7.77184 6.36998 7.71884 6.93638 7.67578C6.82818 8.44754 6.77739 9.24028 6.98275 10.0032C6.50799 9.71946 6.01888 9.4611 5.54853 9.17183C5.05832 8.91678 5.22504 8.27199 5.23718 7.82483Z" fill="white"/>
<path d="M22.1148 7.67773C22.679 7.7219 23.2432 7.76496 23.8052 7.83893C23.8107 8.23088 23.9233 8.68798 23.6815 9.03025C23.1736 9.41116 22.5852 9.66841 22.0508 10.0096C22.265 9.24665 22.1965 8.45391 22.1148 7.67773Z" fill="white"/>
<path d="M7.20024 7.66527C7.72579 7.67962 8.27452 7.60123 8.78351 7.75911C8.66647 8.94491 8.66537 10.1969 9.20748 11.29C8.69297 10.982 8.16301 10.6993 7.65292 10.3835C7.47185 10.2731 7.31396 10.1163 7.24661 9.91099C6.97942 9.19002 7.08762 8.40501 7.20024 7.66527Z" fill="white"/>
<path d="M9.04379 7.73145C9.50198 7.79769 9.95908 7.88492 10.4018 8.02403C10.2009 9.75856 10.7894 11.5185 11.9144 12.8412C11.2829 12.489 10.6536 12.1324 10.0342 11.7592C9.68416 11.5582 9.43463 11.2237 9.29221 10.8527C8.89363 9.86566 8.91792 8.7704 9.04379 7.73145Z" fill="white"/>
<path d="M18.6351 8.02293C19.0768 7.88381 19.5328 7.79879 19.991 7.73145C20.1102 8.69532 20.1356 9.69894 19.8265 10.6319C19.6752 11.0492 19.4621 11.4831 19.0657 11.7194C18.4132 12.129 17.7265 12.4801 17.0762 12.8942C17.4836 12.3797 17.8722 11.8431 18.135 11.238C18.5932 10.2377 18.7312 9.11266 18.6351 8.02293Z" fill="white"/>
<path d="M20.2507 7.69924C20.7795 7.67054 21.3095 7.65177 21.8405 7.66391C21.9554 8.40476 22.0592 9.19087 21.7975 9.91295C21.718 10.1823 21.4718 10.338 21.2443 10.4727C20.7718 10.7498 20.2915 11.0148 19.8223 11.2964C20.3887 10.189 20.3732 8.90602 20.2507 7.69924Z" fill="white"/>
<path d="M3.62305 8.06537C4.07131 7.99029 4.52067 7.9119 4.97225 7.85449C4.95569 8.18572 4.95237 8.51695 4.96562 8.84817C4.52177 8.58098 4.0702 8.32594 3.62305 8.06537Z" fill="white"/>
<path d="M24.0605 7.85352C24.5132 7.91203 24.9626 7.98601 25.4086 8.07985C24.956 8.32607 24.5088 8.58332 24.0661 8.8483C24.076 8.51597 24.0738 8.18474 24.0605 7.85352Z" fill="white"/>
<path d="M10.9039 8.2334C11.7751 8.67724 12.5744 9.28891 13.1287 10.1037C13.9038 11.2409 14.309 12.6365 14.2339 14.0122C12.7522 13.2338 11.5476 11.8681 11.0905 10.2451C10.9238 9.58922 10.8432 8.908 10.9039 8.2334Z" fill="white"/>
<path d="M16.453 9.43834C16.9299 8.93046 17.525 8.55618 18.1367 8.23047C18.2482 9.63156 17.8397 11.0647 16.9741 12.1743C16.379 12.9262 15.6514 13.5897 14.7869 14.0192C14.7317 12.3609 15.2992 10.6495 16.453 9.43834Z" fill="white"/>
<path d="M3.49707 8.28809C3.95085 8.54313 4.39801 8.80922 4.8551 9.05764C4.56142 9.21 4.27546 9.37783 3.99833 9.5589C3.82388 9.13824 3.65606 8.71427 3.49707 8.28809Z" fill="white"/>
<path d="M24.1855 9.057C24.6393 8.80858 25.0832 8.5436 25.5347 8.29297C25.3813 8.71915 25.2157 9.14091 25.0401 9.55936C24.763 9.37939 24.4781 9.21047 24.1855 9.057Z" fill="white"/>
<path d="M4.10449 9.80091C4.44124 9.59555 4.78351 9.25329 5.20638 9.30628C5.78823 9.5547 6.31047 9.92457 6.86583 10.226C6.09738 10.4049 5.44376 10.8586 4.82657 11.3279C4.57152 10.8255 4.32641 10.3187 4.10449 9.80091Z" fill="white"/>
<path d="M23.593 9.40831C24.0424 9.11351 24.5624 9.50436 24.8926 9.80909C24.7413 10.3479 24.4498 10.8326 24.2124 11.3349C23.6041 10.8635 22.9527 10.4296 22.2041 10.2187C22.6612 9.93937 23.1227 9.66556 23.593 9.40831Z" fill="white"/>
<path d="M4.94727 11.568C5.58874 11.0745 6.2799 10.5181 7.12122 10.4717C7.85103 10.6715 8.43399 11.207 9.12515 11.5073C7.8698 11.5625 6.75908 12.215 5.76981 12.9349C5.47723 12.49 5.2001 12.0351 4.94727 11.568Z" fill="white"/>
<path d="M21.6342 10.5525C21.9003 10.4112 22.2095 10.4918 22.4811 10.5779C23.0795 10.7899 23.5918 11.1796 24.0886 11.5661C23.8347 12.0364 23.562 12.4968 23.2584 12.9374C22.2801 12.2053 21.1639 11.5639 19.9141 11.5076C20.5048 11.2216 21.0447 10.8407 21.6342 10.5525Z" fill="white"/>
<path d="M5.92578 13.1427C6.85653 12.4659 7.90542 11.7946 9.09563 11.7813C9.52512 11.7559 9.90824 11.9734 10.266 12.1843C10.797 12.4913 11.3204 12.8125 11.868 13.0908C10.8003 12.9086 9.683 12.9108 8.64847 13.2553C7.99485 13.4562 7.40526 13.8084 6.82782 14.1651C6.50543 13.8438 6.2007 13.5048 5.92578 13.1427Z" fill="white"/>
<path d="M19.1085 11.9959C19.5855 11.7132 20.1695 11.7496 20.6907 11.8722C21.5839 12.0974 22.3733 12.602 23.1064 13.143C22.8359 13.5118 22.5257 13.8485 22.1966 14.1654C21.4503 13.6752 20.641 13.2567 19.7555 13.0911C18.902 12.9045 18.0199 12.9575 17.1631 13.0889C17.8311 12.7621 18.4549 12.3514 19.1085 11.9959Z" fill="white"/>
<path d="M7.29883 14.4885C9.24534 13.0995 11.9923 13.2166 13.9598 14.4973C11.9901 15.7714 9.23209 15.9106 7.29883 14.4885Z" fill="white"/>
<path d="M15.2721 14.3791C16.3618 13.7222 17.6613 13.4241 18.9288 13.5025C19.9402 13.5411 20.9007 13.9441 21.7421 14.4862C19.8894 15.8509 17.2605 15.7858 15.3196 14.6419C15.2102 14.611 15.0888 14.4189 15.2721 14.3791Z" fill="white"/>
<path d="M5.92578 15.8567C6.19849 15.4813 6.51316 15.1401 6.85101 14.8232C7.92088 15.5851 9.21597 16.0499 10.5376 16.0234C10.9704 16.0201 11.3999 15.9538 11.8316 15.9196C11.0466 16.3071 10.3366 16.8481 9.51739 17.1639C8.18144 17.3814 6.96363 16.5975 5.92578 15.8567Z" fill="white"/>
<path d="M17.2021 15.9103C18.9289 16.2393 20.7662 15.8738 22.1893 14.8271C22.5228 15.144 22.8363 15.4819 23.109 15.854C22.1452 16.5517 21.0444 17.2606 19.8056 17.1998C19.4843 17.2054 19.1983 17.0397 18.9234 16.894C18.3471 16.5705 17.7851 16.2216 17.2021 15.9103Z" fill="white"/>
<path d="M11.8619 17.0996C12.4714 16.2185 13.2851 15.4733 14.2368 14.9775C14.313 16.4371 13.8603 17.9255 12.9803 19.0936C12.4438 19.8146 11.704 20.3545 10.9069 20.7541C10.802 19.4745 11.1288 18.1573 11.8619 17.0996Z" fill="white"/>
<path d="M14.7827 14.9717C16.0513 15.6275 17.1002 16.7195 17.6843 18.0234C18.0663 18.878 18.1955 19.8286 18.1325 20.7593C17.4524 20.4071 16.8032 19.9732 16.2986 19.3903C15.2475 18.1879 14.7319 16.5583 14.7827 14.9717Z" fill="white"/>
<path d="M4.95312 17.4297C5.20044 16.9572 5.48088 16.5034 5.77678 16.0596C6.7539 16.7794 7.85909 17.4066 9.09347 17.4982C8.44978 17.8073 7.87897 18.2655 7.20658 18.5129C6.33655 18.5272 5.61337 17.9288 4.95312 17.4297Z" fill="white"/>
<path d="M17.0674 16.1025C17.7055 16.4989 18.3724 16.8467 19.0117 17.2398C19.5174 17.5301 19.7636 18.1032 19.9082 18.6431C20.1268 19.4998 20.097 20.3964 19.9866 21.2675C19.5306 21.2012 19.0801 21.1008 18.6363 20.9782C18.8262 19.2194 18.2443 17.4219 17.0674 16.1025Z" fill="white"/>
<path d="M19.9346 17.4974C21.1712 17.4101 22.2808 16.7863 23.2535 16.0576C23.5538 16.4993 23.8353 16.9541 24.0826 17.4278C23.4202 17.9257 22.6948 18.5297 21.8237 18.5098C21.1524 18.2592 20.5827 17.801 19.9346 17.4974Z" fill="white"/>
<path d="M10.0156 17.2455C10.6515 16.847 11.325 16.5124 11.9532 16.1006C10.8017 17.4365 10.2033 19.2185 10.3965 20.9796C9.95153 21.0999 9.50106 21.2026 9.04507 21.2688C8.917 20.21 8.88939 19.0894 9.31447 18.0902C9.458 17.7468 9.69096 17.4365 10.0156 17.2455Z" fill="white"/>
<path d="M14.6542 17.4775C15.1555 19.18 16.4572 20.5867 18.0747 21.2955C17.9709 21.7493 17.8208 22.1909 17.6419 22.6204C16.5235 22.1026 15.2769 21.4821 14.7569 20.2908C14.5162 19.3777 14.6697 18.4116 14.6542 17.4775Z" fill="white"/>
<path d="M4.82585 17.6621C5.44193 18.1369 6.10107 18.584 6.86731 18.7695C6.27883 19.0687 5.74666 19.4872 5.12285 19.7124C4.73531 19.6616 4.42175 19.3988 4.10156 19.1968C4.32348 18.6768 4.57191 18.1678 4.82585 17.6621Z" fill="white"/>
<path d="M10.9756 21.2942C12.5732 20.5843 13.844 19.1987 14.3751 17.5293C14.3905 18.2735 14.3927 19.0187 14.3872 19.7629C14.3861 20.4187 13.9257 20.9531 13.4686 21.3726C12.8647 21.9203 12.1272 22.2857 11.3896 22.6158C11.2152 22.1875 11.0562 21.7502 10.9756 21.2942Z" fill="white"/>
<path d="M22.1572 18.7704C22.9312 18.5904 23.5925 18.1344 24.2097 17.6553C24.4681 18.1609 24.7066 18.6766 24.9351 19.1966C24.5951 19.3975 24.2605 19.7332 23.8399 19.6967C23.2492 19.4461 22.7291 19.0575 22.1572 18.7704Z" fill="white"/>
<path d="M7.55981 18.6742C8.09971 18.3143 8.68709 18.0305 9.23472 17.6816C8.62195 18.7913 8.70917 20.0908 8.75554 21.3097C8.23772 21.324 7.7188 21.3351 7.20098 21.3274C7.10382 20.6991 7.01439 20.0521 7.14688 19.4217C7.2054 19.1413 7.29924 18.8332 7.55981 18.6742Z" fill="white"/>
<path d="M19.8115 17.6934C20.3724 18.0434 20.9741 18.3282 21.5173 18.7058C21.7348 18.8471 21.8132 19.1077 21.874 19.3462C22.0285 19.9987 21.9402 20.6744 21.8375 21.328C21.3032 21.338 20.7688 21.3324 20.2388 21.2629C20.3812 20.0672 20.3812 18.7875 19.8115 17.6934Z" fill="white"/>
<path d="M5.34452 19.9753C5.84577 19.5845 6.44088 19.3317 6.97636 18.9883C6.78204 19.7402 6.81737 20.5208 6.9311 21.2826C6.36028 21.2682 5.79057 21.2417 5.22527 21.1611C5.22527 20.7714 5.10824 20.3176 5.34452 19.9753Z" fill="white"/>
<path d="M22.0576 18.9844C22.5909 19.3311 23.1882 19.5839 23.6906 19.9758C23.9257 20.3203 23.8153 20.7719 23.8065 21.1639C23.2434 21.2411 22.6748 21.2698 22.1062 21.282C22.2166 20.5202 22.2575 19.7363 22.0576 18.9844Z" fill="white"/>
<path d="M3.49707 20.7039C3.65827 20.2788 3.82388 19.856 4.00054 19.4375C4.27987 19.6131 4.56362 19.7831 4.85289 19.9421C4.39359 20.1828 3.95085 20.4544 3.49707 20.7039Z" fill="white"/>
<path d="M24.1904 19.9467C24.4775 19.7844 24.7601 19.6133 25.0384 19.4355C25.2128 19.854 25.3806 20.2747 25.5341 20.7019C25.0836 20.4546 24.6464 20.183 24.1904 19.9467Z" fill="white"/>
<path d="M3.61426 20.9334C4.06583 20.6695 4.52292 20.4144 4.96898 20.1406C4.95462 20.4719 4.95794 20.8031 4.9756 21.1343C4.52292 21.0603 4.06694 21.0095 3.61426 20.9334Z" fill="white"/>
<path d="M24.0661 20.1396C24.511 20.4135 24.9681 20.6685 25.4208 20.9313C24.9692 21.0086 24.5132 21.0616 24.0605 21.1344C24.076 20.8021 24.0782 20.4709 24.0661 20.1396Z" fill="white"/>
<path d="M11.5264 22.8546C12.604 22.3258 13.7379 21.7395 14.3904 20.6807C14.3849 21.2956 14.4003 21.9095 14.3904 22.5245C14.4169 22.933 14.0757 23.219 13.7931 23.4563C13.3404 23.8074 12.8027 24.0228 12.2794 24.2458C12.0111 23.7931 11.7074 23.3526 11.5264 22.8546Z" fill="white"/>
<path d="M14.6344 20.6641C15.2913 21.7295 16.4241 22.3555 17.537 22.8469C17.2941 23.3249 17.038 23.7964 16.7531 24.2502C16.1823 24.0039 15.5894 23.7666 15.1124 23.3558C14.896 23.1648 14.6763 22.9319 14.6542 22.6293C14.5946 21.9757 14.6432 21.3188 14.6344 20.6641Z" fill="white"/>
<path d="M12.416 24.4687C13.1326 24.1717 13.8469 23.8251 14.3934 23.2598C14.3658 23.9112 14.4475 24.5714 14.3548 25.2162C14.124 25.5452 13.7255 25.6855 13.3788 25.8588C13.0431 25.405 12.7218 24.9424 12.416 24.4687Z" fill="white"/>
<path d="M14.6346 23.2451C15.179 23.8215 15.8988 24.1714 16.6209 24.4696C16.3151 24.9421 15.9949 25.4047 15.6592 25.8563C15.3092 25.6741 14.8588 25.5416 14.6755 25.1629C14.5772 24.5303 14.6534 23.8833 14.6346 23.2451Z" fill="white"/>
<path d="M13.543 26.0759C13.83 25.9224 14.1138 25.7612 14.3887 25.5879C14.3909 26.1035 14.3953 26.6202 14.3799 27.1369C14.095 26.788 13.8157 26.4347 13.543 26.0759Z" fill="white"/>
<path d="M14.6349 25.5752C14.9132 25.7541 15.2035 25.9164 15.4972 26.0698C15.2223 26.4353 14.943 26.7974 14.6449 27.1441C14.6272 26.6208 14.6338 26.0974 14.6349 25.5752Z" fill="white"/>
</svg>
