<svg xmlns="http://www.w3.org/2000/svg" viewBox="0 0 20 20"><defs><style>.cls-1{fill:none;}.cls-2{fill:#fff;}</style></defs><g id="Layer_2" data-name="Layer 2"><g id="Variations"><g id="Vision"><rect class="cls-1" width="20" height="20"/><path class="cls-2" d="M11,7.46a1.52,1.52,0,0,1,.48,1.12,1.57,1.57,0,1,1-3.13,0A1.52,1.52,0,0,1,8.8,7.46h0A1.49,1.49,0,0,1,9.88,7,1.51,1.51,0,0,1,11,7.46Z"/><path class="cls-2" d="M15.2,7.7h-.71a4.21,4.21,0,0,0-.16-.61,4,4,0,0,0-.23-.57c0-.11-.11-.22-.17-.33s-.14-.24-.22-.35l.51-.5a.43.43,0,0,0,0-.58l-.59-.58a.4.4,0,0,0-.57,0l-.5.5a4.8,4.8,0,0,0-1.86-.81V3.21a.41.41,0,0,0-.41-.41H9.48a.41.41,0,0,0-.41.41v.63a4.57,4.57,0,0,0-2,.74l-.4-.4a.39.39,0,0,0-.57,0l-.59.58a.4.4,0,0,0,0,.57l.37.37a4.17,4.17,0,0,0-.54.94s0,0,0,0a4.67,4.67,0,0,0-.33,1H4.58a.41.41,0,0,0-.41.41v.82a.4.4,0,0,0,.41.4H5a4.77,4.77,0,0,0,.84,2.05l-.31.31a.39.39,0,0,0,0,.58l.58.58a.42.42,0,0,0,.57,0L7,12.52a4.56,4.56,0,0,0,2,.8v.5a.41.41,0,0,0,.41.41h.82a.4.4,0,0,0,.4-.41v-.53a4.59,4.59,0,0,0,1.93-.87l.43.43a.42.42,0,0,0,.58,0l.58-.58a.42.42,0,0,0,0-.57l-.45-.45a4.67,4.67,0,0,0,.73-1.91h.7a.4.4,0,0,0,.4-.41V8.1A.4.4,0,0,0,15.2,7.7ZM12.53,7a4.48,4.48,0,0,1,.28.67,3.4,3.4,0,0,1,.09.46,3,3,0,0,1,0,.42,3.08,3.08,0,0,1-.09.75,4.41,4.41,0,0,1-.26.72,3.39,3.39,0,0,1-1.12,1.2,3.08,3.08,0,0,1-.76.35,3.12,3.12,0,0,1-.93.14,3.27,3.27,0,0,1-.7-.08,3.09,3.09,0,0,1-2-1.47,3.16,3.16,0,0,1-.44-1.61,1.62,1.62,0,0,1,0-.31,2.72,2.72,0,0,1,.1-.57A3.39,3.39,0,0,1,7,7l.06-.11A3.23,3.23,0,0,1,8.31,5.78a3.29,3.29,0,0,1,.76-.28,2.74,2.74,0,0,1,.7-.08,3.12,3.12,0,0,1,.93.14,2.94,2.94,0,0,1,.68.3,3.26,3.26,0,0,1,1.06,1Z"/><path class="cls-2" d="M12.84,7.05l-.4-.16.09.14a4.48,4.48,0,0,1,.28.67,3.4,3.4,0,0,1,.09.46,3,3,0,0,1,0,.42,3.08,3.08,0,0,1-.09.75,4.41,4.41,0,0,1-.26.72,3.39,3.39,0,0,1-1.12,1.2,3.08,3.08,0,0,1-.76.35,3.12,3.12,0,0,1-.93.14,3.27,3.27,0,0,1-.7-.08,3.09,3.09,0,0,1-2-1.47,3.16,3.16,0,0,1-.44-1.61,1.62,1.62,0,0,1,0-.31,2.72,2.72,0,0,1,.1-.57A3.39,3.39,0,0,1,7,7l-.12,0A18.19,18.19,0,0,0,4.17,8.5v.43a.4.4,0,0,0,.41.4H5a4.77,4.77,0,0,0,.84,2.05l-.31.31a.39.39,0,0,0,0,.58l.58.58a.42.42,0,0,0,.57,0L7,12.52a4.56,4.56,0,0,0,2,.8v.5a.41.41,0,0,0,.41.41h.82a.4.4,0,0,0,.4-.41v-.53a4.59,4.59,0,0,0,1.93-.87l.43.43a.42.42,0,0,0,.58,0l.58-.58a.42.42,0,0,0,0-.57l-.45-.45a4.67,4.67,0,0,0,.73-1.91h.7a.4.4,0,0,0,.4-.41V8.5A18.28,18.28,0,0,0,12.84,7.05Zm-3,3.1a1.57,1.57,0,0,0,1.57-1.57A1.52,1.52,0,0,0,11,7.46h0A1.51,1.51,0,0,0,9.88,7a1.49,1.49,0,0,0-1.07.44h0a1.52,1.52,0,0,0-.48,1.12A1.56,1.56,0,0,0,9.88,10.15Zm8.68,1A10,10,0,0,0,16.4,9.05a1.17,1.17,0,0,1-.5.87,8.79,8.79,0,0,1,1.78,1.69v.07c-1.63,2.15-5.86,4.3-7.8,4.3s-6.16-2.15-7.79-4.3v-.07A8.86,8.86,0,0,1,3.88,9.92a1.17,1.17,0,0,1-.52-.86,9.67,9.67,0,0,0-2.15,2.06,1.21,1.21,0,0,0,0,1.05C3,14.6,7.66,17,9.88,17s6.92-2.38,8.68-4.81A1.21,1.21,0,0,0,18.56,11.12Z"/><path class="cls-2" d="M15.2,7.7h-.71a4.21,4.21,0,0,0-.16-.61,4,4,0,0,0-.23-.57,12.68,12.68,0,0,0-3.19-1.11h0a5.19,5.19,0,0,0-1-.1,5.11,5.11,0,0,0-1,.1h0A13.77,13.77,0,0,0,5.38,6.65s0,0,0,0a4.67,4.67,0,0,0-.33,1H4.58a.41.41,0,0,0-.41.41v.82a.4.4,0,0,0,.41.4h.14a15.41,15.41,0,0,1,1.85-1l.06,0a2.72,2.72,0,0,1,.1-.57A3.39,3.39,0,0,1,7,7l.06-.11A3.23,3.23,0,0,1,8.31,5.78a3.29,3.29,0,0,1,.76-.28,2.74,2.74,0,0,1,.7-.08,3.12,3.12,0,0,1,.93.14,2.94,2.94,0,0,1,.68.3,3.26,3.26,0,0,1,1.06,1l.09.14a4.48,4.48,0,0,1,.28.67,3.4,3.4,0,0,1,.09.46l.3.14a15.41,15.41,0,0,1,1.85,1h.15a.4.4,0,0,0,.4-.41V8.1A.4.4,0,0,0,15.2,7.7ZM8.81,7.46A4.63,4.63,0,0,1,9.88,7.3,4.7,4.7,0,0,1,11,7.46,1.51,1.51,0,0,0,9.88,7,1.49,1.49,0,0,0,8.81,7.46Zm10.56,3.07a11.87,11.87,0,0,0-3-2.71,1.27,1.27,0,0,1,0,.28v.82a.57.57,0,0,1,0,.13,1.17,1.17,0,0,1-.5.87,8.79,8.79,0,0,1,1.78,1.69v.07c-1.63,2.15-5.86,4.3-7.8,4.3s-6.16-2.15-7.79-4.3v-.07A8.86,8.86,0,0,1,3.88,9.92a1.17,1.17,0,0,1-.52-.86.57.57,0,0,1,0-.13V8.11a1,1,0,0,1,0-.3,12.07,12.07,0,0,0-3,2.72,2.13,2.13,0,0,0,0,2.23C2.31,15.4,7.24,18,9.88,18s7.58-2.58,9.49-5.22A2.18,2.18,0,0,0,19.37,10.53Z"/><path class="cls-2" d="M11,7.46a1.52,1.52,0,0,1,.48,1.12,1.57,1.57,0,1,1-3.13,0A1.52,1.52,0,0,1,8.8,7.46h0A1.49,1.49,0,0,1,9.88,7,1.51,1.51,0,0,1,11,7.46Z"/><path class="cls-2" d="M15.2,7.7h-.71a4.21,4.21,0,0,0-.16-.61,4,4,0,0,0-.23-.57c0-.11-.11-.22-.17-.33s-.14-.24-.22-.35l.51-.5a.43.43,0,0,0,0-.58l-.59-.58a.4.4,0,0,0-.57,0l-.5.5a4.8,4.8,0,0,0-1.86-.81V3.21a.41.41,0,0,0-.41-.41H9.48a.41.41,0,0,0-.41.41v.63a4.57,4.57,0,0,0-2,.74l-.4-.4a.39.39,0,0,0-.57,0l-.59.58a.4.4,0,0,0,0,.57l.37.37a4.17,4.17,0,0,0-.54.94s0,0,0,0a4.67,4.67,0,0,0-.33,1H4.58a.41.41,0,0,0-.41.41v.82a.4.4,0,0,0,.41.4H5a4.77,4.77,0,0,0,.84,2.05l-.31.31a.39.39,0,0,0,0,.58l.58.58a.42.42,0,0,0,.57,0L7,12.52a4.56,4.56,0,0,0,2,.8v.5a.41.41,0,0,0,.41.41h.82a.4.4,0,0,0,.4-.41v-.53a4.59,4.59,0,0,0,1.93-.87l.43.43a.42.42,0,0,0,.58,0l.58-.58a.42.42,0,0,0,0-.57l-.45-.45a4.67,4.67,0,0,0,.73-1.91h.7a.4.4,0,0,0,.4-.41V8.1A.4.4,0,0,0,15.2,7.7ZM12.53,7a4.48,4.48,0,0,1,.28.67,3.4,3.4,0,0,1,.09.46,3,3,0,0,1,0,.42,3.08,3.08,0,0,1-.09.75,4.41,4.41,0,0,1-.26.72,3.39,3.39,0,0,1-1.12,1.2,3.08,3.08,0,0,1-.76.35,3.12,3.12,0,0,1-.93.14,3.27,3.27,0,0,1-.7-.08,3.09,3.09,0,0,1-2-1.47,3.16,3.16,0,0,1-.44-1.61,1.62,1.62,0,0,1,0-.31,2.72,2.72,0,0,1,.1-.57A3.39,3.39,0,0,1,7,7l.06-.11A3.23,3.23,0,0,1,8.31,5.78a3.29,3.29,0,0,1,.76-.28,2.74,2.74,0,0,1,.7-.08,3.12,3.12,0,0,1,.93.14,2.94,2.94,0,0,1,.68.3,3.26,3.26,0,0,1,1.06,1Z"/><path class="cls-2" d="M11,7.46a1.52,1.52,0,0,1,.48,1.12,1.57,1.57,0,1,1-3.13,0A1.52,1.52,0,0,1,8.8,7.46h0A1.49,1.49,0,0,1,9.88,7,1.51,1.51,0,0,1,11,7.46Z"/><path class="cls-2" d="M13.2,8.3a3.12,3.12,0,0,0-.36-1.25,3.34,3.34,0,0,0-1.93-1.64h0a3.34,3.34,0,0,0-2,0h0A3.34,3.34,0,0,0,6.92,7.05,3.11,3.11,0,0,0,6.57,8.3a1.32,1.32,0,0,0,0,.28,3.34,3.34,0,0,0,6.67,0A1.32,1.32,0,0,0,13.2,8.3Zm-.36,1a4.41,4.41,0,0,1-.26.72,3.39,3.39,0,0,1-1.12,1.2,3.08,3.08,0,0,1-.76.35,3.12,3.12,0,0,1-.93.14,3.27,3.27,0,0,1-.7-.08,3.09,3.09,0,0,1-2-1.47,3.16,3.16,0,0,1-.44-1.61,1.62,1.62,0,0,1,0-.31,2.72,2.72,0,0,1,.1-.57A3.39,3.39,0,0,1,7,7l.06-.11A3.23,3.23,0,0,1,8.31,5.78a3.29,3.29,0,0,1,.76-.28,2.74,2.74,0,0,1,.7-.08,3.12,3.12,0,0,1,.93.14,2.94,2.94,0,0,1,.68.3,3.26,3.26,0,0,1,1.06,1l.09.14a4.48,4.48,0,0,1,.28.67,3.4,3.4,0,0,1,.09.46,3,3,0,0,1,0,.42A3.08,3.08,0,0,1,12.84,9.33Z"/><path class="cls-2" d="M11.45,8.58a1.57,1.57,0,1,1-3.13,0A1.52,1.52,0,0,1,8.8,7.46h0A1.49,1.49,0,0,1,9.88,7,1.51,1.51,0,0,1,11,7.46h0A1.52,1.52,0,0,1,11.45,8.58Z"/><path class="cls-2" d="M15.2,7.7h-.71a4.21,4.21,0,0,0-.16-.61,4,4,0,0,0-.23-.57c0-.11-.11-.22-.17-.33s-.14-.24-.22-.35l.51-.5a.43.43,0,0,0,0-.58l-.59-.58a.4.4,0,0,0-.57,0l-.5.5a4.8,4.8,0,0,0-1.86-.81V3.21a.41.41,0,0,0-.41-.41H9.48a.41.41,0,0,0-.41.41v.63a4.57,4.57,0,0,0-2,.74l-.4-.4a.39.39,0,0,0-.57,0l-.59.58a.4.4,0,0,0,0,.57l.37.37a4.17,4.17,0,0,0-.54.94s0,0,0,0a4.67,4.67,0,0,0-.33,1H4.58a.41.41,0,0,0-.41.41v.82a.4.4,0,0,0,.41.4H5a4.77,4.77,0,0,0,.84,2.05l-.31.31a.39.39,0,0,0,0,.58l.58.58a.42.42,0,0,0,.57,0L7,12.52a4.56,4.56,0,0,0,2,.8v.5a.41.41,0,0,0,.41.41h.82a.4.4,0,0,0,.4-.41v-.53a4.59,4.59,0,0,0,1.93-.87l.43.43a.42.42,0,0,0,.58,0l.58-.58a.42.42,0,0,0,0-.57l-.45-.45a4.67,4.67,0,0,0,.73-1.91h.7a.4.4,0,0,0,.4-.41V8.1A.4.4,0,0,0,15.2,7.7ZM12.53,7a4.48,4.48,0,0,1,.28.67,3.4,3.4,0,0,1,.09.46,3,3,0,0,1,0,.42,3.08,3.08,0,0,1-.09.75,4.41,4.41,0,0,1-.26.72,3.39,3.39,0,0,1-1.12,1.2,3.08,3.08,0,0,1-.76.35,3.12,3.12,0,0,1-.93.14,3.27,3.27,0,0,1-.7-.08,3.09,3.09,0,0,1-2-1.47,3.16,3.16,0,0,1-.44-1.61,1.62,1.62,0,0,1,0-.31,2.72,2.72,0,0,1,.1-.57A3.39,3.39,0,0,1,7,7l.06-.11A3.23,3.23,0,0,1,8.31,5.78a3.29,3.29,0,0,1,.76-.28,2.74,2.74,0,0,1,.7-.08,3.12,3.12,0,0,1,.93.14,2.94,2.94,0,0,1,.68.3,3.26,3.26,0,0,1,1.06,1Z"/></g></g></g></svg>