<?xml version="1.0" encoding="UTF-8"?>
<svg id="Layer_2" data-name="Layer 2" xmlns="http://www.w3.org/2000/svg" viewBox="0 0 20 20">
  <defs>
    <style>
      .cls-1 {
        fill: #c19277;
      }

      .cls-1, .cls-2, .cls-3 {
        stroke-width: 0px;
      }

      .cls-2 {
        fill: none;
      }

      .cls-3 {
        fill: #575756;
      }
    </style>
  </defs>
  <g id="Variations">
    <g id="Coffee_Equipments" data-name="Coffee Equipments">
      <path class="cls-1" d="m16.64,18.75l-1.01.25H4.05l-.04-.04.62-2.85s.01-.06.01-.1c0-.24-.17-.44-.4-.49-.03-.01-.06-.01-.1-.01-.2,0-.38.13-.46.31-.03.06-.64,2.93-.64,2.93-.14.64.35,1.25,1.01,1.25h11.58c.66,0,1.15-.61,1.01-1.25Zm-2.71-12.42c-.07-.21-.07-.44,0-.66l1.45-4.34c.22-.65-.26-1.33-.95-1.33H5.25c-.69,0-1.18.68-.96,1.33l1.45,4.34c.07.22.07.45,0,.66l-1.02,4.69s-.01.07-.01.1c0,.25.17.44.4.49.03.01.07.01.1.01.2,0,.38-.12.46-.3.02-.05,1.04-4.73,1.04-4.73.12-.4.11-.84-.02-1.23l-1.44-4.36h9.18s-1.44,4.36-1.44,4.36c-.14.39-.14.83-.02,1.23l2.69,12.37.98-.21-2.71-12.42Z"/>
      <rect class="cls-3" x="4.82" y="4.8" width="10" height="3.39" rx="1.01" ry="1.01"/>
      <path class="cls-3" d="m11.41,14c0,.88-.71,1.59-1.59,1.59s-1.59-.71-1.59-1.59,1.59-3.99,1.59-3.99c0,0,1.59,3.11,1.59,3.99Z"/>
      <rect class="cls-2" y="0" width="20" height="20"/>
    </g>
  </g>
</svg>