<?xml version="1.0" encoding="UTF-8"?>
<svg id="Layer_2" data-name="Layer 2" xmlns="http://www.w3.org/2000/svg" viewBox="0 0 20 20">
  <defs>
    <style>
      .cls-1 {
        fill: #c19277;
      }

      .cls-1, .cls-2, .cls-3 {
        stroke-width: 0px;
      }

      .cls-2 {
        fill: none;
      }

      .cls-3 {
        fill: #575756;
      }
    </style>
  </defs>
  <g id="Variations">
    <g id="Sachet_Square">
      <rect class="cls-2" width="20" height="20"/>
      <circle class="cls-1" cx="7.37" cy="10.42" r=".75"/>
      <circle class="cls-1" cx="11.76" cy="13.94" r="1.04"/>
      <circle class="cls-1" cx="7.03" cy="14.21" r=".54"/>
      <circle class="cls-1" cx="9.73" cy="9.89" r=".53"/>
      <circle class="cls-1" cx="8.87" cy="12.72" r=".53"/>
      <circle class="cls-1" cx="12.11" cy="11.41" r=".38"/>
      <path class="cls-3" d="m16.63,8.08v7.62c0,.71-.59,1.3-1.3,1.3H3.96c-.72,0-1.3-.59-1.3-1.3v-3.12c0-.27-.22-.5-.5-.5s-.5.23-.5.5v3.12c0,1.27,1.03,2.3,2.3,2.3h11.37c1.27,0,2.3-1.03,2.3-2.3v-7.62h-1Z"/>
      <polygon class="cls-1" points="10.99 2.03 8.65 2.03 9.82 0 10.99 2.03"/>
      <polygon class="cls-1" points="14.71 2.03 12.37 2.03 13.54 0 14.71 2.03"/>
      <polygon class="cls-1" points="7.27 2.03 4.93 2.03 6.1 0 7.27 2.03"/>
      <polygon class="cls-3" points="10.99 17.97 8.65 17.97 9.82 20 10.99 17.97"/>
      <polygon class="cls-3" points="14.71 17.97 12.37 17.97 13.54 20 14.71 17.97"/>
      <polygon class="cls-3" points="7.27 17.97 4.93 17.97 6.1 20 7.27 17.97"/>
      <path class="cls-1" d="m17.63,4.33v3.75h-1v-3.75c0-.71-.59-1.3-1.3-1.3H3.96c-.72,0-1.3.59-1.3,1.3v3.25c0,.28-.22.5-.5.5s-.5-.22-.5-.5v-3.25c0-1.27,1.03-2.3,2.3-2.3h11.37c1.27,0,2.3,1.03,2.3,2.3Z"/>
    </g>
  </g>
</svg>