<?xml version="1.0" encoding="UTF-8"?>
<svg id="Layer_2" data-name="Layer 2" xmlns="http://www.w3.org/2000/svg" viewBox="0 0 20 20">
  <defs>
    <style>
      .cls-1 {
        fill: #c19277;
      }

      .cls-1, .cls-2, .cls-3 {
        stroke-width: 0px;
      }

      .cls-2 {
        fill: none;
      }

      .cls-3 {
        fill: #575756;
      }
    </style>
  </defs>
  <g id="Variations">
    <g id="Bundle">
      <g>
        <path class="cls-3" d="m17.58,9.32c-.31-.15-.65-.26-1-.33v1.03c.36.09.7.25,1,.46.82.56,1.36,1.51,1.36,2.57s-.54,2.01-1.37,2.57c-.32.23-.69.39-1.09.48-.09.39-.24.75-.45,1.07.43-.02.85-.12,1.24-.27,1.56-.59,2.67-2.1,2.67-3.85,0-1.64-.96-3.06-2.36-3.73Z"/>
        <path class="cls-1" d="m16.43,6.25h-5.72c.58,0,1.06.43,1.14,1h4.58c.09,0,.15.07.15.15v7.87c0,.29-.03.57-.1.83-.09.39-.24.75-.45,1.07-.63,1-1.75,1.67-3.03,1.67h-.28c-.73,0-1.41-.22-1.97-.6-.21.26-.46.49-.74.7.76.57,1.7.9,2.71.9h.28c1.95,0,3.62-1.22,4.27-2.94.16-.4.26-.83.3-1.28.01-.12.01-.23.01-.35v-7.87c0-.64-.51-1.15-1.15-1.15Z"/>
        <path class="cls-1" d="m2.43,15.62c-.83-.56-1.37-1.51-1.37-2.57s.54-2.01,1.36-2.57v-1.16C1.02,9.99.06,11.41.06,13.05c0,1.75,1.11,3.26,2.67,3.85-.16-.4-.26-.83-.3-1.28Z"/>
        <path class="cls-3" d="m11.85,7.25c-.08-.57-.56-1-1.14-1H3.57c-.63,0-1.15.51-1.15,1.15v7.87c0,.12,0,.23.01.35.04.45.14.88.3,1.28.65,1.72,2.32,2.94,4.27,2.94h.28c1.02,0,1.97-.33,2.73-.9.28-.21.53-.44.74-.7.7-.8,1.11-1.84,1.11-2.97v-7.87s0-.1,0-.15Zm-.99,8.02c0,.89-.32,1.69-.85,2.31-.22.26-.47.48-.75.66-.57.38-1.25.6-1.98.6h-.28c-1.27,0-2.39-.67-3.03-1.67-.21-.32-.36-.68-.45-1.07-.07-.26-.1-.54-.1-.83v-7.87c0-.08.07-.15.15-.15h7.14c.08,0,.15.07.15.15v7.87Z"/>
        <path class="cls-1" d="m12.29,2.48c0,.28-.22.5-.5.5h-1.33v1.33c0,.28-.22.5-.5.5s-.5-.22-.5-.5v-1.33h-1.33c-.28,0-.5-.22-.5-.5s.22-.5.5-.5h1.33V.65c0-.28.22-.5.5-.5s.5.22.5.5v1.33h1.33c.28,0,.5.23.5.5Z"/>
      </g>
      <rect class="cls-2" width="20" height="20"/>
    </g>
  </g>
</svg>