<?xml version="1.0" encoding="UTF-8"?>
<svg id="Layer_2" data-name="Layer 2" xmlns="http://www.w3.org/2000/svg" viewBox="0 0 20 20">
  <defs>
    <style>
      .cls-1 {
        fill: #c19277;
      }

      .cls-1, .cls-2, .cls-3 {
        stroke-width: 0px;
      }

      .cls-2, .cls-4 {
        fill: none;
      }

      .cls-4 {
        stroke: #575756;
        stroke-linecap: round;
        stroke-linejoin: round;
      }

      .cls-3 {
        fill: #575756;
      }
    </style>
  </defs>
  <g id="Variations">
    <g id="Capsule">
      <path class="cls-1" d="m2,2.09l.19,1c.24-.31.75-.67,1.51-1h-1.7Zm14.46,2.76l-.21,1.16-1.93,10.38c-.13.69-.59,1.25-1.23,1.51l-2.36.96c-.23.09-.48.14-.73.14s-.5-.05-.74-.14l-2.36-.96c-.64-.26-1.1-.83-1.23-1.51l-.43-2.28c-.05-.23-.25-.4-.49-.4-.03,0-.07,0-.1.01-.22.05-.4.24-.4.49l.03.18s.01.01.01.02l.4,2.16c.19,1.02.88,1.87,1.83,2.26l2.36.95c.36.15.74.22,1.12.22s.75-.07,1.11-.22l2.36-.95c.95-.39,1.64-1.24,1.83-2.26l2.06-11.07.26-1.39c-.26.25-.65.5-1.16.74Zm-12.14,4.28s-.01-.02-.01-.04l-.57-3.08-.21-1.17c-.51-.23-.89-.48-1.15-.73l.25,1.39.73,3.89c.05.23.25.4.49.4.04,0,.07,0,.11-.01.22-.05.39-.25.39-.49v-.02l-.03-.14Zm11.98-7.04c.76.33,1.27.69,1.51,1l.19-1h-1.7Z"/>
      <path class="cls-3" d="m10,0C5.03,0,1,1.57,1,3.5c0,.74.6,1.44,1.63,2,.32.19.69.36,1.11.51,1.62.62,3.82.99,6.26.99s4.63-.37,6.25-.99c.42-.15.79-.32,1.11-.51,1.03-.56,1.64-1.26,1.64-2C19,1.57,14.97,0,10,0Zm7.62,4.1c-.26.25-.65.5-1.16.74-1.34.62-3.52,1.15-6.46,1.15s-5.14-.54-6.47-1.16c-.51-.23-.89-.48-1.15-.73-.25-.21-.38-.43-.38-.61,0-.12.06-.26.19-.41.24-.31.75-.67,1.51-1,1.34-.59,3.47-1.08,6.3-1.08s4.95.49,6.3,1.08c.76.33,1.27.69,1.51,1,.13.15.19.29.19.41,0,.18-.13.4-.38.61Z"/>
      <line class="cls-4" x1="14" y1="9" x2="13" y2="14"/>
      <rect class="cls-2" width="20" height="20"/>
    </g>
  </g>
</svg>