<?xml version="1.0" encoding="UTF-8"?>
<svg id="Layer_2" data-name="Layer 2" xmlns="http://www.w3.org/2000/svg" viewBox="0 0 20 20.02">
  <defs>
    <style>
      .cls-1 {
        fill: #c19277;
      }

      .cls-1, .cls-2, .cls-3 {
        stroke-width: 0px;
      }

      .cls-2, .cls-4 {
        fill: none;
      }

      .cls-4 {
        stroke: #575756;
        stroke-miterlimit: 10;
      }

      .cls-3 {
        fill: #575756;
      }
    </style>
  </defs>
  <g id="Variations">
    <g id="Bean_Pack" data-name="Bean Pack">
      <rect class="cls-2" y=".02" width="20" height="20"/>
      <path class="cls-1" d="m4.82,4.7v-1.13c-.43.29-.74.75-.84,1.3l-.13.83-.57,3.71s0,.07,0,.1c0,.23.17.43.38.48.04.01.08.02.12.02.24,0,.44-.18.49-.4.01-.03.01-.07.01-.1l.59-3.81.1-.65c.02-.13.07-.25.13-.35h-.27Zm11.43,8.98l-1.22-7.98-.13-.83c-.1-.55-.42-1.01-.85-1.3v1.13h-.27c.06.1.11.21.13.32l.1.68,1.26,8.16c.02.13.03.26.03.38v2.73c0,1.13-.88,2.05-1.96,2.05h-7.81c-1.08,0-1.96-.92-1.96-2.05,0,0,0-1.66.01-2.49v-.05c-.01-.22-.18-.42-.4-.47-.03-.01-.07-.01-.11-.01-.28,0-.5.23-.5.5v2.52c0,1.68,1.33,3.05,2.96,3.05h7.81c1.64,0,2.96-1.37,2.96-3.05v-2.73c0-.19,0-.37-.05-.56Z"/>
      <path class="cls-3" d="m13.05,0h-7.22c-1.11,0-2.01.9-2.01,2.01v3.69h11.23v-3.69c0-1.11-.9-2.01-2-2.01Zm1,4.7H4.82v-2.69c0-.56.45-1.01,1.01-1.01h7.22c.55,0,1,.45,1,1.01v2.69Z"/>
      <g>
        <path class="cls-3" d="m10.08,9.9c.24,0,.48.05.69.16,1,.52,1.22,2.1.48,3.53-.58,1.13-1.57,1.83-2.46,1.83-.24,0-.48-.05-.69-.16-1-.52-1.22-2.1-.48-3.53.58-1.13,1.57-1.83,2.46-1.83m0-1h0c-1.29,0-2.61.93-3.35,2.37-1.01,1.95-.6,4.1.91,4.88.35.18.74.27,1.15.27,1.29,0,2.61-.93,3.35-2.37.45-.87.63-1.83.51-2.7-.13-.99-.65-1.78-1.43-2.18-.35-.18-.74-.27-1.15-.27h0Z"/>
        <path class="cls-4" d="m10.87,9.5c.13,1.06-.1,1.73-.35,2.16-.73,1.26-2.13,1.29-2.64,2.52-.24.58-.17,1.16-.07,1.56"/>
      </g>
    </g>
  </g>
</svg>