<?xml version="1.0" encoding="UTF-8"?>
<svg id="Layer_2" data-name="Layer 2" xmlns="http://www.w3.org/2000/svg" viewBox="0 0 20 20">
  <defs>
    <style>
      .cls-1 {
        fill: #c19277;
      }

      .cls-1, .cls-2, .cls-3 {
        stroke-width: 0px;
      }

      .cls-2 {
        fill: none;
      }

      .cls-3 {
        fill: #575756;
      }
    </style>
  </defs>
  <g id="Variations">
    <g id="Instant_Coffee" data-name="Instant Coffee">
      <rect class="cls-2" width="20" height="20"/>
      <path class="cls-1" d="m4.75,3.47l3.84,3.84-2.47,2.47-3.92-3.92.57-.06.06-.84.06-.9.98-.09.85-.08.03-.43m-.85-2.26l-.12,1.78-1.83.17-.12,1.75L.01,5.1l6.11,6.11,3.89-3.89L3.9,1.21h0Z"/>
      <path class="cls-3" d="m15.25,3.47l.03.43.85.08.98.09.06.9.06.84.57.06-3.92,3.92-2.47-2.47,3.84-3.84m.85-2.26l-6.11,6.11,3.89,3.89,6.11-6.11-1.82-.19-.12-1.75-1.83-.17-.12-1.78h0Z"/>
      <circle class="cls-3" cx="8.16" cy="12.42" r=".83"/>
      <circle class="cls-3" cx="12.68" cy="13.82" r="1.41"/>
      <circle class="cls-3" cx="9.87" cy="15.32" r=".51"/>
      <circle class="cls-3" cx="7.32" cy="17.46" r="1.33"/>
    </g>
  </g>
</svg>