<?xml version="1.0" encoding="UTF-8"?>
<svg id="Layer_2" data-name="Layer 2" xmlns="http://www.w3.org/2000/svg" viewBox="0 0 57.13 58.01">
  <defs>
    <style>
      .cls-1 {
        fill: #fff;
        stroke-width: 0px;
      }
    </style>
  </defs>
  <g id="Variations">
    <g id="High_Quality_Beans" data-name="High Quality Beans">
      <g>
        <path class="cls-1" d="m29.69,8.72v2c.22,0,.44,0,.66,0,8.31.23,15.21,4.91,15.06,10.22-.14,5.17-6.84,9.37-14.94,9.37-.22,0-.44,0-.66,0-8.31-.23-15.21-4.91-15.06-10.22.14-5.17,6.84-9.37,14.94-9.37v-2m0,0c-9.24,0-16.76,4.97-16.94,11.32-.18,6.51,7.43,12,17,12.27.24,0,.48.01.72.01,9.24,0,16.76-4.97,16.94-11.32.18-6.51-7.43-12-17-12.27-.24,0-.48-.01-.72-.01h0Z"/>
        <path class="cls-1" d="m35.13,23.53h-.05c-2,0-3.94-1.06-6-2.18-1.97-1.07-4.01-2.17-5.94-2.18h0c-2.59,0-4.73.93-6.44,1.67-1.13.49-2.03.88-2.86.93l-.13-2c.48-.03,1.28-.38,2.19-.77,1.79-.78,4.23-1.84,7.24-1.84h0c2.44,0,4.7,1.23,6.89,2.42,1.83.99,3.56,1.93,5.05,1.93h.05c2.58,0,4.1-.5,5.71-1.03,1.51-.5,3.07-1.02,5.48-1.14l.1,2c-2.14.11-3.51.56-4.96,1.04-1.69.56-3.44,1.14-6.33,1.14Z"/>
      </g>
      <path class="cls-1" d="m55.51,35.1l-2.63-.84c-.6-.19-1.26-.13-1.81.17l-14.46,7.82s-.1.04-.11.04l-.89-.04.34-.39c.59-.66.75-1.62.4-2.44l-.63-1.51c-.28-.67-.84-1.16-1.54-1.35l-12.68-3.45c-.57-.15-1.17-.09-1.7.19l-10.9,5.76-1.6-2.77c-.25-.43-.69-.66-1.15-.66-.23,0-.45.06-.66.18l-4.83,2.79c-.64.37-.85,1.18-.49,1.81l9.77,16.93c.25.43.69.66,1.15.66.23,0,.45-.06.66-.18l4.83-2.79c.64-.37.85-1.18.49-1.81l-1.04-1.8,1.46-.85c.07-.04.16-.06.24-.03l14.76,3.73c.19.05.38.07.57.07.4,0,.8-.11,1.16-.31l21.23-12.29c.57-.33.98-.89,1.11-1.54l.51-2.4c.25-1.17-.43-2.33-1.57-2.7ZM11.35,55.76l-9.1-15.77,3.66-2.11,9.1,15.77-3.66,2.11Zm43.27-15.97c-.02.09-.08.17-.16.21l-21.23,12.29c-.07.04-.16.05-.24.03l-14.76-3.73c-.59-.15-1.21-.06-1.74.25l-1.45.84-5.13-8.89,10.83-5.73c.07-.04.16-.05.24-.03l12.68,3.45c.1.03.18.1.22.19l.63,1.51c.05.12.03.25-.06.34l-1.3,1.47c-.08.09-.21.13-.33.1l-6.71-1.85c-.53-.14-1.08.16-1.23.7-.15.53.17,1.08.7,1.23l6.71,1.85c.09.02.18.02.27.04.06.02.12.04.19.05l3.71.17c.39,0,.77-.1,1.11-.28l14.46-7.82c.08-.04.17-.05.25-.02l2.63.84c.16.05.26.21.22.38l-.51,2.4Z"/>
      <polygon class="cls-1" points="20.6 0 21.74 2.31 24.28 2.67 22.44 4.47 22.88 7 20.6 5.81 18.32 7 18.76 4.47 16.92 2.67 19.46 2.31 20.6 0"/>
      <polygon class="cls-1" points="29.87 0 31.01 2.31 33.56 2.67 31.72 4.47 32.15 7 29.87 5.81 27.6 7 28.03 4.47 26.19 2.67 28.74 2.31 29.87 0"/>
      <polygon class="cls-1" points="39.15 0 40.29 2.31 42.83 2.67 40.99 4.47 41.42 7 39.15 5.81 36.87 7 37.31 4.47 35.47 2.67 38.01 2.31 39.15 0"/>
    </g>
  </g>
</svg>