<?xml version="1.0" encoding="UTF-8"?>
<svg id="Layer_2" data-name="Layer 2" xmlns="http://www.w3.org/2000/svg" viewBox="0 0 58 58.49">
  <defs>
    <style>
      .cls-1 {
        fill: #fff;
        stroke-width: 0px;
      }
    </style>
  </defs>
  <g id="Variations">
    <g id="Roasting">
      <g>
        <g>
          <path class="cls-1" d="m30.81,32.7c-.14-.24-.29-.49-.46-.72-.62-.84-1.45-1.6-2.46-2.24-1.37-.88-3.05-1.53-4.93-1.86-.93-.16-1.9-.25-2.9-.25-.18,0-.37,0-.55.01-6.09.19-10.93,3.62-10.93,7.8s5.14,7.81,11.47,7.81h.01c1.52,0,2.97-.2,4.29-.56.37-.14.74-.25,1.1-.35.77-.28,1.49-.62,2.14-1.01.72-.43,1.36-.91,1.9-1.45.07-1.53.79-3.27,2.02-4.89-.07-.8-.31-1.57-.7-2.29Zm-3.21,6.21c-1.75,1.41-4.51,2.34-7.55,2.34-2.66,0-5.15-.69-6.99-1.94-.8-.55-2.08-1.63-2.4-3.15-.05-.23-.08-.47-.08-.72,0-.46.09-.91.27-1.34,1.01-2.53,4.82-4.47,9.21-4.47.76,0,1.5.06,2.22.17,1.81.27,3.45.88,4.77,1.77.03.02.06.04.09.07.71.5,1.73,1.39,2.17,2.6.04.09.07.18.09.28.08.29.13.6.13.92s-.04.62-.13.92c-.25.94-.88,1.81-1.8,2.55Z"/>
          <path class="cls-1" d="m24.67,37.86c-1.7,0-3.28-.77-4.8-1.51-1.18-.57-2.29-1.12-3.21-1.15-.83-.02-1.85.18-3.03.42-1.22.25-2.6.54-4.23.66l-.16-1.99c1.5-.12,2.82-.39,3.98-.63,1.31-.27,2.44-.5,3.51-.46,1.34.05,2.69.71,4,1.35,1.32.64,2.68,1.31,3.92,1.31h.01c1.06,0,2.23-.55,3.27-1.04.82-.38,1.52-.71,2.17-.77l.18,1.99c-.3.03-.94.33-1.5.59-1.16.54-2.6,1.22-4.11,1.23h-.02Z"/>
        </g>
        <g>
          <path class="cls-1" d="m29.63,41.31c-.12-.44-.17-.92-.14-1.43-.54.54-1.18,1.02-1.9,1.45.03.19.07.38.13.56.49-.07.96-.1,1.43-.11.12-.01.24-.01.36-.01.09,0,.18,0,.27.01-.06-.15-.11-.31-.15-.47Zm0,0c-.12-.44-.17-.92-.14-1.43-.54.54-1.18,1.02-1.9,1.45.03.19.07.38.13.56.49-.07.96-.1,1.43-.11.12-.01.24-.01.36-.01.09,0,.18,0,.27.01-.06-.15-.11-.31-.15-.47Zm0,0c-.12-.44-.17-.92-.14-1.43-.54.54-1.18,1.02-1.9,1.45.03.19.07.38.13.56.49-.07.96-.1,1.43-.11.12-.01.24-.01.36-.01.09,0,.18,0,.27.01-.06-.15-.11-.31-.15-.47Zm0,0c-.12-.44-.17-.92-.14-1.43-.54.54-1.18,1.02-1.9,1.45.03.19.07.38.13.56.49-.07.96-.1,1.43-.11.12-.01.24-.01.36-.01.09,0,.18,0,.27.01-.06-.15-.11-.31-.15-.47Zm0,0c-.12-.44-.17-.92-.14-1.43-.54.54-1.18,1.02-1.9,1.45.03.19.07.38.13.56.49-.07.96-.1,1.43-.11.12-.01.24-.01.36-.01.09,0,.18,0,.27.01-.06-.15-.11-.31-.15-.47Zm0,0c-.12-.44-.17-.92-.14-1.43-.54.54-1.18,1.02-1.9,1.45.03.19.07.38.13.56.49-.07.96-.1,1.43-.11.12-.01.24-.01.36-.01.09,0,.18,0,.27.01-.06-.15-.11-.31-.15-.47Zm0,0c-.12-.44-.17-.92-.14-1.43-.54.54-1.18,1.02-1.9,1.45.03.19.07.38.13.56.49-.07.96-.1,1.43-.11.12-.01.24-.01.36-.01.09,0,.18,0,.27.01-.06-.15-.11-.31-.15-.47Zm17.35-11.33c-1.21-1.62-3.21-2.41-5.53-2.41-.7,0-1.43.07-2.17.22-2.04.4-4.19,1.34-6.16,2.82-.55.42-1.07.86-1.55,1.32-.26.25-.51.51-.76.77-.42.46-.8.94-1.14,1.43-.1.13-.19.26-.27.39-.53.79-.96,1.61-1.26,2.43-.26.66-.44,1.31-.54,1.96-.14.84-.15,1.65-.01,2.42.03.19.07.38.13.56.18.67.47,1.29.89,1.85.02.02.03.04.05.06.29-.02.57-.03.85-.03h.44c2.22.09,4,.8,4.99,1.96-.15.12-.31.26-.46.42.24,0,.49-.02.74-.05.25-.02.51-.06.77-.1.43-.07.86-.17,1.3-.29.07-.02.14-.04.21-.06.69-.21,1.38-.47,2.08-.8.34-.15.68-.33,1.02-.52.64-.35,1.27-.76,1.88-1.22.01-.01.03-.02.04-.03.54-.41,1.05-.84,1.52-1.3.62-.59,1.18-1.22,1.67-1.87,2.57-3.41,3.21-7.35,1.27-9.93Zm-3.83,9.85c-.55.6-1.18,1.16-1.87,1.68-.23.17-.47.34-.71.5-.47.31-.96.59-1.45.83h-.01c-.39.21-.77.38-1.16.53-.65.26-1.3.46-1.93.59-.64.13-1.27.2-1.88.2-1.42,0-2.61-.38-3.43-1.1-.19-.15-.35-.33-.5-.52-.18-.24-.32-.49-.43-.76-.06-.15-.11-.31-.15-.47-.12-.44-.17-.92-.14-1.43.07-1.53.79-3.27,2.02-4.89.76-1,1.7-1.95,2.81-2.78,2.24-1.68,4.84-2.64,7.13-2.64,1.21,0,2.25.27,3.03.79.35.22.66.5.9.82.19.25.34.52.45.81h0c.85,2.15-.25,5.26-2.68,7.84Zm-13.52,1.48c-.12-.44-.17-.92-.14-1.43-.54.54-1.18,1.02-1.9,1.45.03.19.07.38.13.56.49-.07.96-.1,1.43-.11.12-.01.24-.01.36-.01.09,0,.18,0,.27.01-.06-.15-.11-.31-.15-.47Zm0,0c-.12-.44-.17-.92-.14-1.43-.54.54-1.18,1.02-1.9,1.45.03.19.07.38.13.56.49-.07.96-.1,1.43-.11.12-.01.24-.01.36-.01.09,0,.18,0,.27.01-.06-.15-.11-.31-.15-.47Zm0,0c-.12-.44-.17-.92-.14-1.43-.54.54-1.18,1.02-1.9,1.45.03.19.07.38.13.56.49-.07.96-.1,1.43-.11.12-.01.24-.01.36-.01.09,0,.18,0,.27.01-.06-.15-.11-.31-.15-.47Zm0,0c-.12-.44-.17-.92-.14-1.43-.54.54-1.18,1.02-1.9,1.45.03.19.07.38.13.56.49-.07.96-.1,1.43-.11.12-.01.24-.01.36-.01.09,0,.18,0,.27.01-.06-.15-.11-.31-.15-.47Zm0,0c-.12-.44-.17-.92-.14-1.43-.54.54-1.18,1.02-1.9,1.45.03.19.07.38.13.56.49-.07.96-.1,1.43-.11.12-.01.24-.01.36-.01.09,0,.18,0,.27.01-.06-.15-.11-.31-.15-.47Z"/>
          <path class="cls-1" d="m46.36,31.2c-.14.13-.33.44-.53.79h0c-.11.19-.21.39-.31.58-.61,1.13-1.35,2.54-2.56,3.45-1.36,1.03-3.09,1.36-4.76,1.68-1.28.24-2.5.48-3.26,1-.67.46-1.36,1.25-2.17,2.15-.31.35-.64.73-1,1.12-.33.35-.68.72-1.06,1.09-.24.24-.51.35-.78.6l-.29-.02-1.18-1.22c.24-.21.47-.43.69-.64.17-.16.33-.31.48-.47.61-.62,1.15-1.23,1.65-1.79.89-1,1.65-1.86,2.53-2.47,1.1-.76,2.58-1.04,4.01-1.32,1.45-.27,2.95-.56,3.94-1.31.85-.64,1.46-1.78,1.99-2.79.26-.47.49-.9.73-1.27.17-.25.35-.47.54-.65l1.34,1.49Z"/>
        </g>
        <g>
          <path class="cls-1" d="m30.26,16.34c-1.2-.27-2.39-.4-3.53-.4-4.72,0-8.61,2.16-9.36,5.55-.46,2.12.39,4.31,2.14,6.15.76.8,1.7,1.54,2.77,2.16,1.81.27,3.45.88,4.77,1.77.03.02.06.04.09.07,1.1.22,2.17.33,3.21.34h.09c.38,0,.76-.01,1.13-.05,3.55-.26,6.48-1.79,7.71-4.14.23-.43.4-.88.51-1.36.93-4.21-3.34-8.73-9.53-10.09Zm.18,13.64c-.84,0-1.69-.08-2.55-.24-.19-.03-.37-.07-.56-.11-1.61-.35-3.1-.95-4.37-1.75-.77-.48-1.46-1.03-2.04-1.65-.67-.71-1.69-2.05-1.67-3.6,0-.24.02-.47.08-.71.1-.44.29-.86.54-1.25,1.15-1.65,3.75-2.73,6.86-2.73,1.02,0,2.06.12,3.1.35,2.61.57,4.89,1.78,6.41,3.4.6.63,1.47,1.76,1.65,3.09.05.39.04.8-.05,1.22-.07.3-.18.59-.32.87-1,1.87-3.74,3.11-7.08,3.11Z"/>
          <path class="cls-1" d="m38.72,24.77l-.25,1.98c-.19-.03-.55.03-.95.12-.21.04-.43.09-.65.14-.9.2-1.95.44-3.02.44-.42,0-.84-.04-1.26-.13-1.67-.36-3.04-1.45-4.38-2.51-1.02-.81-1.99-1.58-2.88-1.81-.8-.21-1.84-.23-3.05-.24-.92-.01-1.92-.03-3.03-.13-.4-.03-.81-.07-1.24-.13l.27-1.98c.55.07,1.08.12,1.59.15.87.06,1.69.08,2.44.09,1.34.02,2.5.03,3.53.3,1.29.34,2.47,1.28,3.62,2.18,1.15.92,2.34,1.86,3.56,2.13,1.04.22,2.3-.06,3.41-.31.53-.12,1.02-.23,1.46-.28.3-.03.57-.04.83-.01Z"/>
        </g>
        <g>
          <path class="cls-1" d="m20.28,50.54h0c-.18-.78-.47-1.56-.85-2.34-.3-.6-.65-1.2-1.07-1.78-.86-1.24-1.98-2.42-3.31-3.45-2.72-2.11-5.79-3.19-8.46-3.19-2.24,0-4.19.76-5.4,2.32-2.64,3.4-.73,9.31,4.28,13.2,2.72,2.11,5.79,3.19,8.46,3.19,1.74,0,3.31-.46,4.49-1.41.34-.26.64-.56.91-.91.16-.2.3-.41.42-.63.48-.83.73-1.78.76-2.79.03-.71-.05-1.45-.23-2.21Zm-6.35,5.95c-2.33,0-4.96-1.01-7.23-2.77-2.11-1.64-3.65-3.7-4.33-5.82-.3-.93-.65-2.57.03-3.97.09-.21.22-.41.37-.61.28-.36.63-.65,1.05-.88.74-.43,1.69-.66,2.77-.66,2.33,0,4.96,1.01,7.23,2.77,1.33,1.02,2.43,2.22,3.22,3.5.45.7.81,1.42,1.06,2.16.02.05.03.1.05.15.12.35.24.81.31,1.31.09.69.09,1.46-.15,2.2-.02.08-.05.16-.08.24-.01.02-.02.04-.03.06-.11.27-.26.53-.45.77-.19.25-.42.47-.68.65-.06.05-.13.1-.2.13-.77.51-1.77.77-2.94.77Z"/>
          <path class="cls-1" d="m19.07,54.21l-.36.56-.72,1.13c-.16-.11-.52-.21-.92-.31-.12-.03-.24-.06-.37-.09-.09-.02-.17-.04-.26-.06-1.25-.28-2.81-.63-4-1.55-1.35-1.04-2.13-2.62-2.88-4.15-.58-1.17-1.12-2.28-1.82-2.87-.63-.53-1.57-.99-2.66-1.53-.82-.4-1.72-.85-2.68-1.41-.35-.2-.7-.41-1.06-.65l1.09-1.68c.47.31.94.59,1.39.84.76.42,1.48.78,2.14,1.11,1.21.59,2.25,1.1,3.06,1.79,1.03.86,1.69,2.21,2.34,3.52.65,1.32,1.32,2.69,2.3,3.45.56.43,1.29.69,2.05.9.24.06.49.12.73.17h0c.15.04.29.08.44.11.39.09.76.17,1.09.27.12.03.23.06.34.11.08.02.15.04.22.08.2.07.38.16.54.26Z"/>
        </g>
        <g>
          <path class="cls-1" d="m52.54,42.97c-2.18-1.69-4.59-2.72-6.83-3.06-.56-.09-1.1-.13-1.63-.13-.32,0-.63.02-.93.05-.55.6-1.18,1.16-1.87,1.68-.23.17-.47.34-.71.5-.47.31-.96.59-1.45.83h-.01c-.39.21-.77.38-1.16.53-.3.71-.44,1.47-.45,2.28-.01.2,0,.41.01.61.03.55.12,1.1.28,1.66.65,2.58,2.46,5.28,5.17,7.38,2.72,2.11,5.79,3.19,8.46,3.19,2.24,0,4.19-.76,5.4-2.32,2.64-3.41.73-9.32-4.28-13.2Zm-1.12,13.52c-2.33,0-4.96-1.01-7.23-2.77-2.11-1.64-3.65-3.7-4.33-5.82-.24-.73-.51-1.91-.28-3.05.06-.31.16-.62.3-.92.1-.21.23-.41.38-.61.28-.36.63-.65,1.05-.88.73-.43,1.66-.65,2.73-.66h.04c2.33,0,4.96,1.01,7.23,2.77,2.11,1.63,3.65,3.7,4.33,5.81.27.83.58,2.23.16,3.51-.12.37-.3.74-.56,1.07-.19.25-.42.47-.68.65-.79.59-1.87.9-3.14.9Z"/>
          <path class="cls-1" d="m56.56,54.21l-1.08,1.69c-.16-.11-.52-.21-.92-.31-.2-.05-.42-.1-.63-.15-1.25-.28-2.8-.63-4-1.55-1.35-1.04-2.13-2.62-2.88-4.15-.58-1.17-1.12-2.28-1.83-2.87-.63-.53-1.56-.99-2.65-1.53-.62-.3-1.28-.63-1.97-1.01-.24-.12-.48-.26-.72-.4-.34-.2-.69-.42-1.05-.65l.28-.44h.01c.49-.24.98-.52,1.45-.83.25.15.5.3.74.43.42.23.82.44,1.21.64.32.17.63.32.93.47,1.21.59,2.25,1.1,3.06,1.79,1.03.86,1.69,2.21,2.34,3.52.65,1.32,1.32,2.69,2.3,3.45.85.65,2.1.93,3.22,1.18.53.12,1.01.23,1.43.38.28.09.54.2.76.34Z"/>
        </g>
        <g>
          <path class="cls-1" d="m37.51,46.26c-.02-.07-.04-.13-.07-.2-.04-.12-.09-.24-.15-.35-.3-.66-.73-1.25-1.27-1.75-1.06-1-2.54-1.68-4.25-1.99-.63-.12-1.3-.18-1.99-.19-.09-.01-.18-.01-.27-.01-.12,0-.24,0-.36.01-.47.01-.94.04-1.43.11-.74.09-1.5.24-2.27.45-.36.1-.73.21-1.1.35-.14.04-.27.09-.41.14-2.25.86-4.16,2.12-5.58,3.59-.51.52-.95,1.07-1.32,1.63.45.7.81,1.42,1.06,2.16.3-.68.75-1.36,1.33-2.01,1.24-1.41,3.06-2.68,5.22-3.5,1.32-.5,2.69-.81,4.01-.9.29-.02.57-.03.85-.03h.15c.1,0,.19,0,.28.01h.01c2.22.08,4,.79,4.99,1.95.11.11.2.24.28.37.15.21.26.43.35.67.11.29.18.59.21.89.28,2.82-2.67,6.26-7.01,7.9-1.6.61-3.28.93-4.86.93s-3.08-.34-4.16-.95c-.4-.22-.75-.48-1.04-.77-.19-.18-.36-.38-.51-.6,0-.01-.01-.02-.02-.03-.07-.12-.15-.25-.21-.38-.33-.1-.7-.18-1.09-.27-.15-.03-.29-.07-.44-.1h0c-.24-.06-.49-.12-.73-.18.06.33.15.67.27.99.18.47.42.91.72,1.3.13.03.25.06.37.09-.06.05-.13.1-.2.13.42.52.94.97,1.55,1.36,1.45.92,3.37,1.41,5.49,1.41,1.77,0,3.68-.34,5.57-1.06,5.05-1.91,8.38-5.89,8.31-9.51-.01-.57-.1-1.12-.28-1.66Z"/>
          <path class="cls-1" d="m36.51,47.05c-.17.09-.44.33-.73.61-.15.16-.31.32-.46.48-.89.92-2,2.07-3.41,2.61-1.59.61-3.35.45-5.04.29-1.3-.11-2.54-.23-3.41.07-.78.26-1.66.82-2.68,1.47-.09.06-.18.11-.27.17-.6.38-1.25.78-1.98,1.2-.1.05-.2.1-.3.16-.02,0-.03,0-.05.03-.36.18-.73.37-1.12.56l-.62-1.31c.15.03.29.07.44.1.39.09.76.17,1.09.27.12.03.23.06.34.11.24-.74.24-1.51.15-2.2.44-.27.86-.53,1.25-.78.19-.12.38-.24.57-.35h0c.9-.57,1.71-1.05,2.55-1.33,1.27-.43,2.77-.29,4.22-.16,1.47.14,2.99.27,4.15-.17.99-.38,1.89-1.31,2.68-2.13.2-.21.4-.41.59-.6h.01c.15-.16.31-.3.46-.42.23-.2.46-.36.69-.47l.36.74.52,1.05Z"/>
        </g>
        <path class="cls-1" d="m10.41,5.46c.63,1.13,1.57,1.96,1.78,3.37.12.75-.03,1.49-.24,2.12-.46,1.57-1.86,3.16-2.05,4.56-.08,1.04.06,2.49-.38,3.56-.46-1.56-1.42-2.89-1.18-4.63.29-1.95,2.03-3.78,2.29-5.54.16-1.07-.44-2.3-.21-3.45h0Z"/>
        <path class="cls-1" d="m15.98,2.58c.63,1.13,1.57,1.96,1.78,3.37.12.75-.03,1.49-.24,2.12-.46,1.57-1.86,3.16-2.05,4.56-.08,1.04.06,2.49-.38,3.56-.46-1.56-1.42-2.89-1.18-4.63.29-1.95,2.03-3.78,2.29-5.54.16-1.07-.44-2.3-.21-3.45h0Z"/>
        <path class="cls-1" d="m25.55,0c.63,1.13,1.57,1.96,1.78,3.37.12.75-.03,1.49-.24,2.12-.46,1.57-1.86,3.16-2.05,4.56-.08,1.04.06,2.49-.38,3.56-.46-1.56-1.42-2.89-1.18-4.63.29-1.95,2.03-3.78,2.29-5.54.16-1.07-.44-2.3-.21-3.45h0Z"/>
        <path class="cls-1" d="m32.12,0c.63,1.13,1.57,1.96,1.78,3.37.12.75-.03,1.49-.24,2.12-.46,1.57-1.86,3.16-2.05,4.56-.08,1.04.06,2.49-.38,3.56-.46-1.56-1.42-2.89-1.18-4.63.29-1.95,2.03-3.78,2.29-5.54.16-1.07-.44-2.3-.21-3.45h0Z"/>
        <path class="cls-1" d="m43.69,3.51c.63,1.13,1.57,1.96,1.78,3.37.12.75-.03,1.49-.24,2.12-.46,1.57-1.86,3.16-2.05,4.56-.08,1.04.06,2.49-.38,3.56-.46-1.56-1.42-2.89-1.18-4.63.29-1.95,2.03-3.78,2.29-5.54.16-1.07-.44-2.3-.21-3.45h0Z"/>
        <path class="cls-1" d="m48.26,7.42c.63,1.13,1.57,1.96,1.78,3.37.12.75-.03,1.49-.24,2.12-.46,1.57-1.86,3.16-2.05,4.56-.08,1.04.06,2.49-.38,3.56-.46-1.56-1.42-2.89-1.18-4.63.29-1.95,2.03-3.78,2.29-5.54.16-1.07-.44-2.3-.21-3.45h0Z"/>
      </g>
    </g>
  </g>
</svg>