<?xml version="1.0" encoding="UTF-8"?>
<svg id="Layer_2" data-name="Layer 2" xmlns="http://www.w3.org/2000/svg" viewBox="0 0 41.92 58">
  <defs>
    <style>
      .cls-1 {
        fill: #fff;
        stroke-width: 0px;
      }
    </style>
  </defs>
  <g id="Variations">
    <g id="Inventory">
      <g>
        <path class="cls-1" d="m17.56,9.39c-1.01-.87-2.29-1.28-3.7-1.28-.24,0-.48.01-.73.04-.64.06-1.3.2-1.97.42-2.03.67-4.1,2.05-5.8,4.04-3.74,4.35-4.35,9.97-1.35,12.54,1.01.87,2.29,1.28,3.7,1.28s3.06-.45,4.6-1.31c.8-.43,1.59-.98,2.34-1.63.26-.91.64-1.83,1.14-2.73.86-1.54,1.98-2.82,3.19-3.74h.01c.2-.68.34-1.34.41-1.98.03-.22.04-.43.05-.64.09-2.03-.53-3.84-1.89-5.01Zm-.39,6.69c-.42,1.56-1.29,3.16-2.48,4.55-.55.64-1.15,1.21-1.77,1.7-1.67,1.33-3.54,2.1-5.21,2.1-.48,0-.92-.07-1.31-.19-.41-.14-.77-.34-1.09-.61-.23-.2-.42-.42-.57-.66-.69-1.06-.68-2.41-.59-3.21.2-1.94,1.2-4.08,2.73-5.85,1.46-1.7,3.28-2.94,5.05-3.48.66-.21,1.31-.32,1.93-.32.06,0,.13,0,.19.01.47.01.89.09,1.27.24.35.12.66.31.94.54.29.25.51.54.68.85.38.68.5,1.45.52,2.12.01.34-.01.65-.04.91-.04.36-.1.73-.2,1.1-.01.06-.03.13-.05.2Z"/>
        <path class="cls-1" d="m17.49,11.47c-.19.1-.37.19-.55.28-.42.22-.8.43-1.16.64-.66.39-1.22.76-1.69,1.12-1.85,1.43-2.31,2.68-2.31,4.06,0,2.27-3.24,5.07-5.38,6.67-.74.56-1.36.97-1.66,1.17l-1.09-1.68c.34-.23.71-.48,1.09-.76,2.33-1.69,5.04-4.15,5.04-5.4,0-2.22.91-3.96,3.07-5.63.49-.37,1.04-.74,1.66-1.11.26-.16.53-.32.81-.47.4-.23.83-.45,1.28-.68l.89,1.79Z"/>
      </g>
      <g>
        <path class="cls-1" d="m25.29,10.43l-.6,1.21c.14.2.29.39.43.58.16-.26.37-.5.62-.72.21-.18.44-.33.69-.45v-.02h0c-.37-.21-.75-.4-1.14-.6Zm0,0l-.6,1.21c.14.2.29.39.43.58.16-.26.37-.5.62-.72.21-.18.44-.33.69-.45v-.02h0c-.37-.21-.75-.4-1.14-.6Zm11.34,2.77c-2.48-2.89-5.72-4.5-8.5-4.5-.1,0-.2,0-.29.01-.71.03-1.38.16-1.99.41-.52.21-.99.49-1.42.86-.22.19-.42.39-.59.62-.47.55-.8,1.2-1.02,1.92-.1.33-.17.68-.21,1.04-.1.64-.1,1.31-.03,2,.07-.01.13-.01.2-.01.39,0,.76.06,1.1.18.05.01.09.03.13.05-.43.35-.83.7-1.21,1.04.07.34.17.68.28,1.03.12.35.26.71.42,1.07.45-.45.97-.92,1.58-1.42,0-.01,0-.02,0-.03-.16-.44-.29-.89-.38-1.32-.04-.22-.08-.44-.1-.65-.01-.04-.02-.09-.02-.13v-.05c-.01-.11-.02-.23-.03-.36-.02-.33-.02-.71.04-1.11.05-.44.17-.91.38-1.34.05-.1.1-.19.16-.29.16-.26.37-.5.62-.72.21-.18.44-.33.69-.45,0,0,.01-.01.02-.01.48-.23,1.04-.34,1.68-.34.08,0,.17,0,.26.01,2.23.1,4.78,1.54,6.73,3.79,1.52,1.78,2.52,3.91,2.73,5.85.08.8.09,2.16-.6,3.22-.15.24-.34.46-.57.66-.31.27-.68.47-1.1.6-.39.13-.83.19-1.3.19-1.97,0-4.23-1.08-6.11-2.88-.3-.28-.59-.59-.87-.92-.36-.41-.68-.84-.97-1.29.04.89-.07,1.85-.33,2.84.51.57,1.05,1.09,1.62,1.55,2.13,1.75,4.53,2.7,6.66,2.7,1.41,0,2.7-.41,3.7-1.28,3-2.57,2.39-8.19-1.35-12.54Zm-11.34-2.77l-.6,1.21c.14.2.29.39.43.58.16-.26.37-.5.62-.72.21-.18.44-.33.69-.45v-.02h0c-.37-.21-.75-.4-1.14-.6Zm0,0l-.6,1.21c.14.2.29.39.43.58.16-.26.37-.5.62-.72.21-.18.44-.33.69-.45v-.02h0c-.37-.21-.75-.4-1.14-.6Zm-.7,5.07c-.15.07-.3.13-.45.17h-.01s-.08.07-.12.11c.13.04.26.1.38.17.1.06.2.12.3.2-.04-.22-.08-.44-.1-.65Z"/>
        <path class="cls-1" d="m38.35,24.33l-1.1,1.67c-.3-.2-.92-.61-1.67-1.17-2.14-1.61-5.37-4.4-5.37-6.66,0-1.31-.41-2.42-2.1-3.73-.47-.37-1.04-.74-1.72-1.15-.27-.15-.55-.32-.86-.48-.18-.1-.37-.2-.57-.3-.18-.1-.37-.19-.56-.29l.29-.58.6-1.21c.39.2.77.39,1.14.59h0s.01,0,.02.02c.75.4,1.44.8,2.06,1.22,2.34,1.59,3.7,3.36,3.7,5.91,0,1.25,2.7,3.7,5.04,5.4.38.28.75.53,1.1.76Z"/>
      </g>
      <g>
        <path class="cls-1" d="m17.46,13.87c.01.34-.01.65-.04.91-.04.36-.1.73-.2,1.1.52-.44,1.06-.82,1.6-1.14-.46-.25-.91-.54-1.36-.87Zm1.94,1.17c-.07.64-.21,1.3-.41,1.97.82-.61,1.68-1.06,2.52-1.28-.69-.13-1.4-.37-2.11-.69Zm4.48.69c.05.01.09.03.13.05.04-.04.08-.07.12-.11-.08.03-.16.05-.25.06Zm-9.37-4.9c-.62.37-1.17.74-1.66,1.11.36.54.78,1.07,1.24,1.57.47-.36,1.03-.73,1.69-1.12-.48-.49-.9-1.02-1.27-1.56Zm10.18,5.32c-.04-.22-.08-.44-.1-.65-.15.07-.3.13-.45.17h-.01c-.08.03-.16.05-.25.06.05.01.09.03.13.05-.43.35-.83.7-1.21,1.04-.37.33-.71.66-1.02.98.34.04.68.06,1.01.06.1,0,.2,0,.29-.01.7-.02,1.37-.15,1.99-.38-.16-.44-.29-.89-.38-1.32Zm-5.87-1.41c-.46-.25-.91-.54-1.36-.87.01.34-.01.65-.04.91-.04.36-.1.73-.2,1.1-.01.06-.03.13-.05.2.6.38,1.21.7,1.81.94h.01c.82-.62,1.68-1.07,2.52-1.29-.69-.13-1.4-.37-2.11-.69-.19-.1-.39-.19-.58-.3Zm7.63-3.7c.48-.23,1.04-.34,1.68-.34.08,0,.17,0,.26.01-.11-.66-.29-1.33-.55-2-.63-1.67-1.7-3.35-3.17-4.83-2.51-2.52-5.61-3.88-8.26-3.88-1.62,0-3.08.5-4.14,1.56-1.66,1.65-1.98,4.29-1.11,7.01.19.62.45,1.24.77,1.86.66-.21,1.31-.32,1.93-.32.06,0,.13,0,.19.01-.39-.64-.7-1.31-.92-1.97-.15-.41-.26-.82-.33-1.23-.15-.83-.26-2.27.45-3.41.12-.19.26-.37.43-.54.36-.35.78-.58,1.2-.73.54-.19,1.08-.24,1.53-.24,2.23,0,4.79,1.23,6.84,3.29,1.17,1.18,2.05,2.51,2.6,3.83.28.65.47,1.28.58,1.9h0v.03c.14.8.13,1.57-.04,2.24.68.41,1.25.78,1.72,1.15.26-.67.39-1.41.4-2.18-.62-.42-1.31-.82-2.06-1.22Z"/>
        <path class="cls-1" d="m25.53,12.81c-.18-.1-.37-.2-.57-.3-.21.43-.33.9-.38,1.34-.06.4-.06.78-.04,1.11-.53-.83-1.12-1.68-1.72-2.44-1.11-1.41-2.24-2.51-3-2.57-3-.24-4.88-2.7-6.57-6.44-.23-.51-.45-1.04-.68-1.6l1.85-.75c.15.38.31.74.46,1.08,1.71,3.94,3.19,5.56,5.1,5.71,1.28.1,2.65,1.25,3.86,2.65.29.33.58.68.85,1.04.14.2.29.39.43.58.14.2.28.4.41.59Z"/>
      </g>
      <g>
        <path class="cls-1" d="m27.21,15.99c-.05-.1-.11-.19-.19-.28-.32-.47-.72-.88-1.19-1.2-.14-.11-.3-.21-.46-.3-.25-.15-.52-.27-.79-.36-.31-.11-.62-.19-.94-.23-.28-.05-.57-.07-.86-.07-.06,0-.11,0-.17.01-1.03.02-2.11.31-3.16.84-.21.1-.42.21-.63.34-.54.32-1.08.7-1.6,1.14-.06.04-.11.09-.16.14-1.14.99-2.17,2.26-3.01,3.76-.47.84-.85,1.7-1.13,2.55-.32.95-.53,1.89-.61,2.79.8-.43,1.59-.98,2.34-1.63.26-.91.64-1.83,1.14-2.73.86-1.54,1.98-2.82,3.19-3.74h.01c.82-.62,1.68-1.07,2.52-1.29.36-.1.72-.16,1.07-.17.07-.01.13-.01.2-.01.39,0,.76.06,1.1.18.05.01.09.03.13.05.13.04.26.1.38.17.1.06.2.12.3.2.35.25.64.57.87.95.03.04.06.09.08.13.43.73.66,1.66.69,2.7.04.89-.07,1.85-.33,2.84.51.57,1.05,1.09,1.62,1.55.25-.73.44-1.46.55-2.18.39-2.36.06-4.56-.96-6.15Z"/>
        <path class="cls-1" d="m26.61,16.26c-.37.29-.72.57-1.05.84-.14.11-.27.22-.4.33-.03.02-.05.04-.08.07-.61.5-1.13.97-1.58,1.42-1.87,1.81-2.44,3.1-2.17,4.46.45,2.22-1.72,1.61-1.96.39-.44-2.14.44-3.96,2.41-5.97.31-.32.65-.65,1.02-.98.38-.34.78-.69,1.21-1.04.04-.04.08-.07.12-.11h.01c.14-.12.28-.23.43-.35.04-.04.09-.07.13-.11.22-.17.44-.35.67-.53l.15.2.91,1.15.18.23Z"/>
      </g>
      <path class="cls-1" d="m37.4,25.57c1.19,8.7-2.06,19.76-2.1,19.88l-.06.2-.02.21c-.13,1.62.28,3.2,1.17,4.47.47.67.62,1.62.38,2.38-.63,1.97-2.16,3.3-3.79,3.3H9.11c-1.65,0-3.18-1.35-3.81-3.36-.23-.74-.1-1.64.34-2.3.82-1.22,1.2-2.73,1.08-4.26v-.19s-.07-.19-.07-.19c-.04-.13-3.35-12.29-2.04-20.13h32.78m1.68-2H3.01c-2.24,8.3,1.72,22.66,1.72,22.66.08,1.08-.19,2.15-.75,3-.75,1.12-1,2.65-.58,4,.86,2.78,3.1,4.77,5.72,4.77h23.88c2.59,0,4.81-1.94,5.69-4.68.45-1.4.16-2.99-.64-4.14-.62-.88-.91-2.02-.81-3.16,0,0,3.88-12.96,1.86-22.45h0Z"/>
      <rect class="cls-1" y="20.95" width="41.92" height="7" rx="1.02" ry="1.02"/>
      <g>
        <path class="cls-1" d="m33.37,32.63s-.87,7.51-2.22,10.43"/>
        <path class="cls-1" d="m31.16,44.06c-.14,0-.28-.03-.42-.09-.5-.23-.72-.82-.49-1.33,1.26-2.75,2.12-10.06,2.13-10.13.06-.55.56-.94,1.11-.88.55.06.94.56.88,1.11-.04.31-.9,7.7-2.3,10.74-.17.37-.53.58-.91.58Z"/>
      </g>
    </g>
  </g>
</svg>