<svg xmlns="http://www.w3.org/2000/svg" viewBox="0 0 38 38"><defs><style>.cls-1{fill:none;}.cls-2{fill:#575756;}.cls-3{fill:#1b8d7b;}</style></defs><g id="Layer_2" data-name="Layer 2"><g id="Variations"><g id="Home_Products" data-name="Home Products"><rect class="cls-1" width="38" height="38"/><path class="cls-2" d="M28.3,16.16a17.19,17.19,0,0,0-2-.52V17.7a10.82,10.82,0,0,1,2,.62c2.58,1.05,4.33,2.92,4.33,5s-2,4.18-4.86,5.18h0a11.35,11.35,0,0,1-2.33.58,10.25,10.25,0,0,1-1.21,2.14,13.7,13.7,0,0,0,2.59-.36c4.54-1,7.82-4,7.82-7.54C34.63,20.16,32.05,17.46,28.3,16.16Z"/><path class="cls-3" d="M26.72,12.22H4.51A1.59,1.59,0,0,0,2.93,13.8V18a1,1,0,0,0,1,1h0a1,1,0,0,0,1-1V14.22H26.3V24.89a10.57,10.57,0,0,1-.87,4.19,10.25,10.25,0,0,1-1.21,2.14,10.66,10.66,0,0,1-8.46,4.35,11,11,0,0,1-10.83-11h0A.54.54,0,0,0,4.39,24H3.46a.52.52,0,0,0-.53.52h0c0,7,5.71,13.06,12.69,13.05a12.66,12.66,0,0,0,11.19-6.71,12.52,12.52,0,0,0,1-2.36h0a12.32,12.32,0,0,0,.53-3.61V13.79A1.59,1.59,0,0,0,26.72,12.22Z"/><path class="cls-3" d="M29.7,13.22a1,1,0,0,1-.6-.2L15.61,2.9,2.12,13a1,1,0,0,1-1.39-.2,1,1,0,0,1,.2-1.4L15.61.4l14.69,11a1,1,0,0,1,.2,1.4A1,1,0,0,1,29.7,13.22Z"/></g></g></g></svg>