<svg xmlns="http://www.w3.org/2000/svg" viewBox="0 0 38 38.05"><defs><style>.cls-1{fill:none;}.cls-2{fill:#1b8d7b;}.cls-3{fill:#575756;}</style></defs><g id="Layer_2" data-name="Layer 2"><g id="Variations"><g id="Layer_17" data-name="Layer 17"><rect class="cls-1" width="38" height="38"/><path class="cls-2" d="M30.55,25.67l-.08-.07a6.51,6.51,0,0,0-4.57-1.91,6.05,6.05,0,0,0-2.59.58,7.29,7.29,0,0,1-2.85.77A8.5,8.5,0,0,1,19,25a7,7,0,0,1-5.17-10,6.36,6.36,0,0,0-1.27-7.3l-.07-.07A6.38,6.38,0,0,0,6.68,5.8a6.87,6.87,0,0,0-4.9,4.11A20.16,20.16,0,0,0,.34,21.41a19.51,19.51,0,0,0,3,7.67,1,1,0,0,0,1.49.21h0A1,1,0,0,0,5,28a17.62,17.62,0,0,1-2.71-6.89A17.93,17.93,0,0,1,3.81,10.28,4.51,4.51,0,0,1,7.9,7.68,4.4,4.4,0,0,1,11,9l.07.06a4.39,4.39,0,0,1,.89,5,9,9,0,0,0,6.66,12.87,8.73,8.73,0,0,0,1.44.11,9,9,0,0,0,4-.92,4.11,4.11,0,0,1,1.84-.43A4.5,4.5,0,0,1,29.07,27l.05.06a4.48,4.48,0,0,1-1.28,7.22,17.9,17.9,0,0,1-7.75,1.75A18.94,18.94,0,0,1,17,35.8a17.51,17.51,0,0,1-7.35-3,1,1,0,0,0-1.24,0h0a1,1,0,0,0,.09,1.57,19.4,19.4,0,0,0,8.17,3.39,21.52,21.52,0,0,0,3.39.27,19.85,19.85,0,0,0,8.61-1.94,6.57,6.57,0,0,0,3.49-7.71A6.19,6.19,0,0,0,30.55,25.67Z"/><path class="cls-3" d="M28.65,16.5a1,1,0,0,1-1-1,5,5,0,0,0-5-5,1,1,0,0,1,0-2,7.05,7.05,0,0,1,7,7A1,1,0,0,1,28.65,16.5Z"/><path class="cls-3" d="M36.71,16.5a1,1,0,0,1-1-1A13.11,13.11,0,0,0,22.61,2.41a1,1,0,0,1,0-2A15.11,15.11,0,0,1,37.71,15.5,1,1,0,0,1,36.71,16.5Z"/></g></g></g></svg>