<svg xmlns="http://www.w3.org/2000/svg" viewBox="0 0 38 38"><defs><style>.cls-1{fill:none;}.cls-2{fill:#575756;}.cls-3{fill:#1b8d7b;}</style></defs><g id="Layer_2" data-name="Layer 2"><g id="Variations"><g id="Horeca_Products" data-name="Horeca Products"><rect class="cls-1" width="38" height="38"/><path class="cls-2" d="M29.14,15.16a14.32,14.32,0,0,0-2-.53v2.06a10.82,10.82,0,0,1,2,.62c2.84,1.14,4.77,3.19,4.77,5.47s-2.21,4.6-5.37,5.69a12.53,12.53,0,0,1-2.36.58A10.37,10.37,0,0,1,25,31.2a15.54,15.54,0,0,0,2.59-.36c4.85-1.08,8.36-4.28,8.36-8.06C35.91,19.42,33.15,16.52,29.14,15.16Z"/><path class="cls-3" d="M27.34,10.94H3.89a1.81,1.81,0,0,0-1.81,1.8v3.44a1,1,0,0,0,1,1h0a1,1,0,0,0,1-1V12.94H27.14V24.47a11.28,11.28,0,0,1-1,4.58A10.37,10.37,0,0,1,25,31.2,11.52,11.52,0,0,1,4.08,24.47V23.18a1,1,0,0,0-1-1h0a1,1,0,0,0-1,1v.9A13.79,13.79,0,0,0,15,38a13.52,13.52,0,0,0,12.53-7.15,13,13,0,0,0,1-2.37,13.59,13.59,0,0,0,.6-4V12.74A1.8,1.8,0,0,0,27.34,10.94Z"/><polygon class="cls-3" points="15.79 0.45 17.01 2.93 19.74 3.32 17.76 5.25 18.23 7.97 15.79 6.68 13.34 7.97 13.81 5.25 11.83 3.32 14.56 2.93 15.79 0.45"/><polygon class="cls-3" points="23.3 4.16 24.26 6.1 26.39 6.41 24.85 7.92 25.21 10.04 23.3 9.04 21.39 10.04 21.76 7.92 20.21 6.41 22.35 6.1 23.3 4.16"/><polygon class="cls-3" points="7.93 4.16 8.89 6.1 11.02 6.41 9.48 7.92 9.84 10.04 7.93 9.04 6.02 10.04 6.39 7.92 4.84 6.41 6.98 6.1 7.93 4.16"/></g></g></g></svg>