<svg xmlns="http://www.w3.org/2000/svg" viewBox="0 0 38 38"><defs><style>.cls-1{fill:none;}.cls-2{fill:#575756;}.cls-3{fill:#1b8d7b;}</style></defs><g id="Layer_2" data-name="Layer 2"><g id="Variations"><g id="About_Us" data-name="About Us"><rect class="cls-1" width="38" height="38"/><path class="cls-2" d="M30,8.67a14.35,14.35,0,0,0-2-.55v2.06a12.63,12.63,0,0,1,2,.64c3.27,1.3,5.51,3.66,5.51,6.3,0,2.83-2.58,5.35-6.26,6.58a13.81,13.81,0,0,1-2.38.59,12.51,12.51,0,0,1-1.23,2.17,17.94,17.94,0,0,0,2.59-.39c5.38-1.2,9.28-4.76,9.28-8.95C37.55,13.4,34.49,10.18,30,8.67Z"/><path class="cls-3" d="M28.23,4H1.8A1.8,1.8,0,0,0,0,5.78V19a15,15,0,0,0,28.27,7.07,14.23,14.23,0,0,0,1-2.37A14.93,14.93,0,0,0,30,19V5.78A1.8,1.8,0,0,0,28.23,4ZM28,19a12.84,12.84,0,0,1-1.13,5.29,12.51,12.51,0,0,1-1.23,2.17A13,13,0,0,1,2,19V6H28Z"/><path class="cls-3" d="M13.41,26.33V16.55A1.62,1.62,0,0,1,15,14.92h0a1.63,1.63,0,0,1,1.63,1.63v9.78A1.63,1.63,0,0,1,15,28h0A1.62,1.62,0,0,1,13.41,26.33Z"/><circle class="cls-3" cx="15.02" cy="11.74" r="1.64"/></g></g></g></svg>