<svg xmlns="http://www.w3.org/2000/svg" viewBox="0 0 20 20"><defs><style>.cls-1{fill:none;}.cls-2{fill:#fff;}</style></defs><g id="Layer_2" data-name="Layer 2"><g id="Variations"><g id="Mission"><rect class="cls-1" width="20" height="20"/><path class="cls-2" d="M5.85,1.09V14.42a1,1,0,0,1-1,1h0a1,1,0,0,1-1-1V1.09a1,1,0,1,1,2,0Z"/><path class="cls-2" d="M15.58,3.08,15,3.81,14.14,5l.9,1.2.54.73H8.81V3.08h6.77m2-2H6.81V8.94H17.6a1,1,0,0,0,.79-1.58L16.64,5l1.75-2.34a1,1,0,0,0-.79-1.59Z"/><path class="cls-2" d="M5.8,16.8H3.9a2,2,0,0,0-2,2V20H7.8V18.8a2,2,0,0,0-2-2Z"/></g></g></g></svg>