<svg width="280" height="196" viewBox="0 0 280 196" fill="none" xmlns="http://www.w3.org/2000/svg">
<circle cx="140.958" cy="54.4287" r="51.6376" fill="white"/>
<path d="M135.259 0.18395C147.278 -0.8372 159.621 2.42075 169.553 9.26894C180.242 16.5183 188.132 27.7915 191.208 40.3411C194.786 54.3981 192.229 69.8653 184.311 82.0178C176.429 94.3405 163.268 103.142 148.838 105.606C133.598 108.389 117.263 104.066 105.427 94.0649C96.1515 86.3496 89.5991 75.4087 87.3177 63.5479C85.3646 53.8551 86.2358 43.6193 89.745 34.3763C93.6878 23.8649 101.107 14.7191 110.516 8.60843C117.887 3.79039 126.478 0.85256 135.259 0.18395ZM135.762 7.91146C131.187 13.852 126.644 20.1491 124.736 27.5119C120.983 26.4624 117.057 26.1098 113.167 26.2395C107.891 26.4988 102.611 27.0134 97.432 28.0792C96.5121 28.0427 96.6053 29.153 96.8566 29.7446C98.2465 33.6266 99.8471 37.4357 101.658 41.1434C103.826 45.5117 106.339 49.807 109.892 53.2027C104.41 58.5718 101.249 65.7523 98.3518 72.7302C97.7156 74.5212 96.7309 76.2515 96.6742 78.1925C102.12 79.238 107.643 80.0484 113.203 80.0849C117.069 80.1619 120.999 80.0646 124.715 78.8692C125.899 83.6103 128.326 87.9137 130.992 91.9618C133.618 95.7709 136.329 99.5637 139.55 102.895C141.601 101.006 143.201 98.7006 144.924 96.5246C148.874 91.1311 152.805 85.45 154.426 78.8652C159.293 80.4293 164.471 80.1335 169.508 79.9714C173.852 79.6594 178.172 79.0394 182.443 78.2087C182.382 75.9071 181.146 73.8648 180.404 71.7333C177.592 65.0959 174.513 58.2679 169.224 53.2067C171.721 50.8767 173.69 48.0605 175.392 45.1186C177.941 40.6774 179.971 35.9607 181.778 31.1791C182.102 30.2674 182.548 29.3394 182.414 28.3426C181.912 28.1116 181.373 27.9819 180.838 27.8766C175.773 26.9648 170.643 26.4299 165.501 26.2233C161.768 26.1463 158.008 26.4988 154.41 27.5159C152.919 21.3404 149.316 15.9631 145.653 10.8736C143.72 8.34504 141.868 5.72328 139.558 3.51889C138.144 4.85206 136.973 6.40405 135.762 7.91146ZM144.3 3.87143C144.137 4.34149 144.085 4.8399 144.012 5.33427C145.013 5.57335 146.026 5.7557 147.047 5.91374C157.307 7.48598 166.963 12.5715 174.168 20.0275C175.611 21.4782 176.79 23.1639 178.18 24.6632C178.901 25.4939 180.052 24.3512 179.497 23.5245C178.399 21.7335 176.895 20.2301 175.469 18.7024C167.928 10.7804 157.664 5.55309 146.852 3.94842C146.01 3.83091 145.142 3.68503 144.3 3.87143ZM99.1217 24.2418C99.3365 24.5376 99.762 25.1292 99.9767 25.4209C100.564 25.0319 101.152 24.6227 101.577 24.0513C108.515 14.9015 118.913 8.47471 130.166 6.25007C131.827 5.8489 133.695 5.95831 135.109 4.85207C134.599 4.51168 134.258 3.58778 133.521 3.79039C119.889 5.40316 106.987 12.9564 99.1217 24.2418ZM127.588 12.227C121.056 14.1599 114.998 17.6691 110.059 22.3575C109.487 22.864 109.139 23.5488 108.823 24.2336C110.144 24.0635 110.978 22.9775 111.923 22.167C116.542 18.0054 122.142 14.9542 128.111 13.236C128.686 12.9483 129.935 12.9281 129.533 11.9069C128.873 11.9312 128.22 12.0447 127.588 12.227ZM149.377 11.9393C149.677 12.7822 150.451 13.1145 151.245 13.3049C157.506 15.1122 163.337 18.4269 168.07 22.9126C168.706 23.5286 169.419 24.0918 170.323 24.2701C170.023 23.5448 169.65 22.8519 169.062 22.3251C164.921 18.3742 159.969 15.2783 154.616 13.2563C152.927 12.6282 151.204 11.9596 149.377 11.9393ZM119.358 21.5349C118.264 22.2724 116.931 22.8843 116.51 24.2539C118.734 23.4354 120.477 21.7335 122.632 20.769C123.812 20.0437 125.501 19.8451 126.044 18.3823C123.605 18.905 121.465 20.2666 119.358 21.5349ZM153.085 18.8523C154.62 19.9708 156.424 20.611 158.04 21.5916C159.645 22.4872 161.063 23.6988 162.753 24.4444C162.546 23.9135 162.445 23.2895 161.914 22.9775C160.362 21.7861 158.652 20.8177 156.946 19.8735C155.747 19.2738 154.491 18.3904 153.085 18.8523ZM183.306 33.0309C183.816 35.134 184.817 37.071 185.409 39.1538C188.002 47.5904 188.221 56.7362 185.972 65.2741C185.356 67.8838 184.274 70.3434 183.452 72.8841C183.776 73.0665 184.428 73.4312 184.757 73.6135C186.049 71.9076 186.552 69.7923 187.232 67.8027C190.62 56.639 190.028 44.2393 185.34 33.5294C185.077 32.4798 184.064 32.7594 183.306 33.0309ZM94.1821 73.7392C94.7778 73.5933 95.9448 73.8202 95.7098 72.8558C95.2519 70.9432 94.2794 69.1845 93.7769 67.2759C90.7904 57.6115 90.9728 46.9988 94.3402 37.4519C94.7818 36.1552 95.4099 34.9112 95.6328 33.5456C95.1709 33.2619 94.6805 33.0309 94.17 32.8526C88.2538 45.6251 88.3915 60.9464 94.1821 73.7392ZM98.0601 63.1832C98.2708 63.8761 98.3397 64.7312 99.0609 65.1283C99.6445 64.5529 99.3162 63.7789 99.2028 63.0981C97.5414 56.5174 97.6184 49.5314 99.2676 42.9588C99.5553 42.201 99.45 41.5486 98.6355 41.2366C96.4959 48.3239 96.3987 55.9865 98.0601 63.1832ZM179.752 41.658C179.809 42.9061 180.202 44.0975 180.445 45.3131C181.45 50.6215 181.45 56.1203 180.376 61.4205C180.084 62.7213 179.614 64.0423 179.971 65.3876C181.219 64.1436 181.28 62.3039 181.632 60.6871C182.682 54.3211 182.572 47.6107 180.53 41.4554C180.336 41.5081 179.947 41.6094 179.752 41.658ZM102.424 58.349C102.639 58.2882 103.077 58.1585 103.291 58.0937C103.012 55.6137 102.817 53.1095 103.093 50.6174C103.17 49.5638 103.486 48.3806 102.663 47.5053C101.687 51.0145 101.938 54.779 102.424 58.349ZM175.898 48.259C176.279 51.1928 176.308 54.1631 176.004 57.1049C175.915 57.7614 176.227 58.3652 176.401 58.9811C177.69 55.5611 177.07 51.7844 176.911 48.2226C176.656 48.2347 176.154 48.2509 175.898 48.259ZM99.5634 81.5599C99.5837 82.2568 99.5594 83.0268 100.098 83.5657C108.369 94.3607 121.263 101.606 134.846 102.72C134.963 102.185 135.081 101.651 135.194 101.12C133.525 100.666 131.794 100.512 130.105 100.151C118.787 97.9307 108.434 91.3702 101.448 82.2163C101.063 81.4991 100.252 81.5801 99.5634 81.5599ZM176.445 83.825C169.241 92.5453 158.814 98.5507 147.659 100.415C146.532 100.605 145.406 100.804 144.308 101.12C144.462 101.618 144.607 102.129 144.822 102.611C146.334 102.728 147.817 102.303 149.296 102.044C161.104 99.7501 171.939 92.9546 179.225 83.3955C179.602 82.9052 179.914 82.3541 179.91 81.7139C179.549 81.2438 179.1 81.0979 178.557 81.2803C177.754 82.0421 177.159 82.9862 176.445 83.825ZM116.25 82.1515C116.639 82.7755 117.097 83.3712 117.721 83.7805C120.14 85.4621 122.709 86.9695 125.493 87.9664C125.53 87.7475 125.607 87.3018 125.643 87.083C123.662 86.1875 121.684 85.2555 119.873 84.0439C118.722 83.3104 117.66 82.3298 116.25 82.1515ZM160.942 82.9457C158.62 84.6112 156.108 86.0132 153.461 87.0951C153.47 87.3342 153.486 87.8164 153.494 88.0555C156.857 86.6899 160.322 85.0934 162.846 82.4149C162.157 82.3784 161.477 82.4878 160.942 82.9457ZM108.762 82.2974C109.187 83.0349 109.694 83.7359 110.33 84.3072C115.314 88.9348 121.376 92.4076 127.925 94.2716C128.614 94.6079 129.294 94.2513 129.955 94.0284C128.468 93.141 126.75 92.8128 125.153 92.2009C120.319 90.4098 115.809 87.7192 111.967 84.2829C110.995 83.4765 110.196 82.1839 108.762 82.2974ZM166.736 84.7165C162.08 88.7525 156.484 91.6741 150.556 93.3315C149.96 93.4247 149.588 93.8096 149.612 94.458C150.272 94.4863 150.933 94.381 151.569 94.1946C158.061 92.2536 164.115 88.8052 169.026 84.1289C169.63 83.5981 170.023 82.8849 170.286 82.1312C168.791 82.4919 167.867 83.7886 166.736 84.7165Z" fill="#00A886"/>
<path d="M140.034 6.78906C141.128 8.06145 142.145 9.39462 143.203 10.6954C142.113 11.2627 141.051 11.8745 140.018 12.5391C139.997 10.6224 139.985 8.70574 140.034 6.78906Z" fill="#00A886"/>
<path d="M135.961 10.6904C137.01 9.40184 138.036 8.09704 139.089 6.8125C139.126 8.70487 139.114 10.5972 139.118 12.4896C138.088 11.8413 137.035 11.2456 135.961 10.6904Z" fill="#00A886"/>
<path d="M131.867 16.6228C132.986 14.8561 134.189 13.1501 135.441 11.4766C136.693 12.1614 138.18 12.676 139.015 13.9038C139.291 16.2622 139.044 18.657 139.137 21.0316C137.123 18.9609 134.505 17.6926 131.867 16.6228Z" fill="#00A886"/>
<path d="M140.126 14.1672C140.737 12.7125 142.452 12.206 143.724 11.4766C144.988 13.138 146.167 14.8642 147.29 16.6269C144.632 17.6845 142.026 18.9974 140 21.064C140.065 18.7664 139.822 16.4486 140.126 14.1672Z" fill="#00A886"/>
<path d="M141.704 20.749C143.467 19.2092 145.663 18.3096 147.798 17.4141C148.828 19.0795 149.764 20.8017 150.647 22.5563C146.591 24.4041 142.377 26.6328 140.006 30.5837C140.034 28.1969 139.868 25.8021 140.071 23.4234C140.132 22.3131 140.922 21.4541 141.704 20.749Z" fill="#00A886"/>
<path d="M128.492 22.5599C129.372 20.8053 130.316 19.0872 131.357 17.4258C134.177 18.6374 137.456 19.8409 138.979 22.7098C139.312 25.2789 139.016 27.8966 139.117 30.486C136.678 26.6283 132.552 24.355 128.492 22.5599Z" fill="#00A886"/>
<path d="M128.102 23.4102C132.369 25.3512 137.179 27.7825 138.909 32.4587C139.338 35.6396 139.022 38.8936 139.043 42.1069C137.138 35.9557 132.446 30.8621 126.578 28.2728C126.874 26.5911 127.457 24.9824 128.102 23.4102Z" fill="#00A886"/>
<path d="M143.107 28.2338C145.384 26.0781 148.229 24.6841 151.053 23.3955C151.693 24.9799 152.244 26.6008 152.621 28.2703C146.685 30.8394 141.923 36.01 140.076 42.2341C139.978 39.4705 139.926 36.6988 140.047 33.9352C140.088 31.666 141.514 29.725 143.107 28.2338Z" fill="#00A886"/>
<path d="M105.519 28.7189C107.597 28.5244 109.676 28.3299 111.755 28.1719C111.358 31.0044 111.171 33.9138 111.925 36.7139C110.183 35.6725 108.388 34.7243 106.661 33.6626C104.862 32.7265 105.474 30.3601 105.519 28.7189Z" fill="#00A886"/>
<path d="M167.462 28.1768C169.532 28.3388 171.603 28.4969 173.665 28.7684C173.686 30.2069 174.099 31.8845 173.212 33.1407C171.348 34.5387 169.188 35.4828 167.227 36.735C168.013 33.9349 167.761 31.0254 167.462 28.1768Z" fill="#00A886"/>
<path d="M112.722 28.1314C114.651 28.1841 116.665 27.8964 118.533 28.4758C118.104 32.8279 118.1 37.423 120.089 41.4347C118.201 40.3042 116.256 39.2668 114.384 38.1079C113.719 37.7027 113.14 37.1272 112.892 36.3735C111.912 33.7275 112.309 30.8464 112.722 28.1314Z" fill="#00A886"/>
<path d="M119.488 28.376C121.17 28.6191 122.847 28.9392 124.472 29.4498C123.735 35.8158 125.894 42.275 130.024 47.1295C127.706 45.8368 125.396 44.528 123.123 43.1583C121.838 42.4208 120.922 41.193 120.4 39.8315C118.937 36.2089 119.026 32.1891 119.488 28.376Z" fill="#00A886"/>
<path d="M154.69 29.4458C156.311 28.9352 157.985 28.6232 159.667 28.376C160.104 31.9135 160.197 35.597 159.063 39.0211C158.508 40.5528 157.726 42.1453 156.271 43.0125C153.876 44.5158 151.355 45.8044 148.969 47.324C150.464 45.4357 151.89 43.4663 152.855 41.2457C154.536 37.5744 155.043 33.4453 154.69 29.4458Z" fill="#00A886"/>
<path d="M160.619 28.2577C162.56 28.1524 164.505 28.0835 166.454 28.128C166.876 30.8471 167.257 33.7322 166.296 36.3823C166.004 37.3711 165.101 37.9424 164.266 38.4368C162.532 39.4539 160.769 40.4264 159.047 41.4597C161.126 37.3954 161.069 32.6867 160.619 28.2577Z" fill="#00A886"/>
<path d="M99.5938 29.6021C101.239 29.3265 102.888 29.0388 104.546 28.8281C104.485 30.0438 104.473 31.2594 104.521 32.4751C102.892 31.4945 101.235 30.5584 99.5938 29.6021Z" fill="#00A886"/>
<path d="M174.602 28.8252C176.263 29.04 177.912 29.3115 179.549 29.6559C177.888 30.5595 176.247 31.5037 174.622 32.4762C174.658 31.2565 174.65 30.0408 174.602 28.8252Z" fill="#00A886"/>
<path d="M126.316 30.2188C129.513 31.8477 132.447 34.0926 134.481 37.0831C137.326 41.2569 138.813 46.3789 138.538 51.4279C133.1 48.5711 128.679 43.5585 127.001 37.6018C126.389 35.1948 126.093 32.6946 126.316 30.2188Z" fill="#00A886"/>
<path d="M146.683 34.6391C148.433 32.7751 150.618 31.4014 152.862 30.2061C153.272 35.3483 151.772 40.608 148.596 44.6804C146.411 47.44 143.741 49.8753 140.568 51.4516C140.366 45.3653 142.448 39.0844 146.683 34.6391Z" fill="#00A886"/>
<path d="M99.1328 30.418C100.798 31.354 102.439 32.3306 104.117 33.2423C103.039 33.8015 101.99 34.4175 100.973 35.082C100.332 33.5382 99.7163 31.9821 99.1328 30.418Z" fill="#00A886"/>
<path d="M175.062 33.2416C176.728 32.3299 178.357 31.3573 180.014 30.4375C179.451 32.0016 178.843 33.5496 178.199 35.0853C177.182 34.4248 176.136 33.8049 175.062 33.2416Z" fill="#00A886"/>
<path d="M101.359 35.9723C102.595 35.2186 103.851 33.9624 105.403 34.1569C107.539 35.0687 109.456 36.4261 111.494 37.5324C108.674 38.1888 106.275 39.8543 104.01 41.5765C103.073 39.7327 102.174 37.8728 101.359 35.9723Z" fill="#00A886"/>
<path d="M172.887 34.5304C174.536 33.4484 176.445 34.8829 177.656 36.0013C177.101 37.9788 176.031 39.7577 175.16 41.6014C172.927 39.8711 170.536 38.2786 167.789 37.5047C169.467 36.4795 171.16 35.4745 172.887 34.5304Z" fill="#00A886"/>
<path d="M104.453 42.4564C106.807 40.6451 109.344 38.6028 112.432 38.4326C115.11 39.1661 117.25 41.1314 119.787 42.2336C115.179 42.4362 111.103 44.831 107.472 47.473C106.398 45.84 105.381 44.1705 104.453 42.4564Z" fill="#00A886"/>
<path d="M165.696 38.7277C166.673 38.209 167.807 38.5048 168.804 38.8209C171 39.5989 172.881 41.0293 174.704 42.4476C173.772 44.1738 172.771 45.8635 171.657 47.4804C168.067 44.7938 163.97 42.4395 159.383 42.2328C161.551 41.1833 163.532 39.7853 165.696 38.7277Z" fill="#00A886"/>
<path d="M108.047 48.2352C111.463 45.7512 115.312 43.2875 119.681 43.2389C121.257 43.1457 122.663 43.944 123.976 44.7179C125.925 45.8445 127.846 47.0236 129.856 48.0448C125.937 47.3762 121.836 47.3843 118.04 48.6486C115.641 49.3861 113.477 50.6787 111.358 51.9876C110.174 50.8084 109.056 49.5644 108.047 48.2352Z" fill="#00A886"/>
<path d="M156.429 44.0256C158.18 42.9882 160.323 43.1219 162.236 43.5717C165.514 44.3984 168.411 46.2502 171.102 48.2358C170.109 49.5892 168.971 50.8251 167.763 51.9881C165.024 50.189 162.053 48.6532 158.804 48.0453C155.671 47.3605 152.434 47.555 149.289 48.0372C151.741 46.8378 154.03 45.3304 156.429 44.0256Z" fill="#00A886"/>
<path d="M113.086 53.1738C120.23 48.0762 130.312 48.5057 137.533 53.2062C130.304 57.8825 120.181 58.393 113.086 53.1738Z" fill="#00A886"/>
<path d="M142.346 52.7722C146.346 50.3611 151.115 49.2671 155.767 49.5548C159.479 49.6966 163.004 51.1756 166.092 53.1653C159.292 58.1737 149.644 57.9347 142.52 53.7366C142.119 53.6231 141.674 52.9181 142.346 52.7722Z" fill="#00A886"/>
<path d="M108.047 58.1971C109.048 56.8194 110.203 55.5673 111.443 54.4043C115.369 57.2003 120.122 58.9063 124.973 58.809C126.561 58.7969 128.138 58.5537 129.722 58.4281C126.841 59.8504 124.235 61.836 121.229 62.9949C116.325 63.7932 111.856 60.9162 108.047 58.1971Z" fill="#00A886"/>
<path d="M149.43 58.3932C155.767 59.6007 162.51 58.2594 167.733 54.418C168.957 55.5809 170.108 56.8209 171.109 58.1865C167.571 60.7475 163.531 63.349 158.985 63.1261C157.806 63.1464 156.756 62.5385 155.747 62.0036C153.632 60.8164 151.569 59.5359 149.43 58.3932Z" fill="#00A886"/>
<path d="M129.833 62.758C132.07 59.5244 135.057 56.7892 138.55 54.9697C138.829 60.3267 137.168 65.7891 133.938 70.0763C131.969 72.7223 129.254 74.7039 126.328 76.1707C125.943 71.4743 127.143 66.64 129.833 62.758Z" fill="#00A886"/>
<path d="M140.552 54.9492C145.208 57.3562 149.057 61.3638 151.201 66.1494C152.603 69.2858 153.077 72.7748 152.846 76.1908C150.35 74.8981 147.967 73.3056 146.115 71.166C142.258 66.7532 140.365 60.7722 140.552 54.9492Z" fill="#00A886"/>
<path d="M104.477 63.9682C105.384 62.2339 106.414 60.5684 107.499 58.9395C111.086 61.5815 115.142 63.8831 119.672 64.2194C117.31 65.3541 115.215 67.0357 112.747 67.9434C109.554 67.9961 106.9 65.7998 104.477 63.9682Z" fill="#00A886"/>
<path d="M148.938 59.0977C151.28 60.5524 153.727 61.8288 156.073 63.2714C157.929 64.3371 158.833 66.4402 159.364 68.4217C160.166 71.5662 160.057 74.8566 159.651 78.0538C157.978 77.8106 156.325 77.4419 154.696 76.9921C155.393 70.537 153.257 63.94 148.938 59.0977Z" fill="#00A886"/>
<path d="M159.461 64.2196C163.999 63.8995 168.072 61.61 171.642 58.9355C172.744 60.5564 173.777 62.2259 174.685 63.9643C172.254 65.7918 169.591 68.0084 166.394 67.9354C163.93 67.0156 161.84 65.3339 159.461 64.2196Z" fill="#00A886"/>
<path d="M123.055 63.292C125.389 61.8291 127.86 60.6013 130.166 59.0898C125.94 63.993 123.743 70.5332 124.453 76.9964C122.82 77.4381 121.166 77.815 119.493 78.0581C119.023 74.1721 118.921 70.0591 120.481 66.3919C121.008 65.1316 121.863 63.993 123.055 63.292Z" fill="#00A886"/>
<path d="M140.078 64.1436C141.918 70.392 146.696 75.5545 152.632 78.156C152.251 79.8214 151.7 81.4423 151.044 83.0186C146.939 81.1181 142.364 78.8408 140.455 74.4685C139.572 71.1174 140.135 67.5717 140.078 64.1436Z" fill="#00A886"/>
<path d="M104.01 64.8232C106.271 66.5657 108.69 68.2068 111.502 68.8876C109.342 69.9857 107.389 71.5215 105.1 72.3481C103.678 72.1617 102.527 71.1973 101.352 70.4558C102.166 68.5472 103.078 66.6791 104.01 64.8232Z" fill="#00A886"/>
<path d="M126.578 78.1519C132.442 75.5464 137.106 70.4609 139.055 64.334C139.112 67.0652 139.12 69.8004 139.099 72.5316C139.095 74.9385 137.406 76.8998 135.728 78.4396C133.511 80.4495 130.805 81.7908 128.098 83.0024C127.457 81.4301 126.874 79.8255 126.578 78.1519Z" fill="#00A886"/>
<path d="M167.617 68.8896C170.458 68.2291 172.885 66.5555 175.15 64.7969C176.098 66.6528 176.974 68.5451 177.812 70.4537C176.564 71.1912 175.337 72.4231 173.793 72.2894C171.625 71.3695 169.716 69.9431 167.617 68.8896Z" fill="#00A886"/>
<path d="M114.042 68.5365C116.023 67.2155 118.179 66.174 120.189 64.8936C117.94 68.966 118.26 73.7354 118.43 78.209C116.53 78.2617 114.625 78.3022 112.725 78.2739C112.368 75.9682 112.04 73.5936 112.526 71.2798C112.741 70.2505 113.086 69.12 114.042 68.5365Z" fill="#00A886"/>
<path d="M159.008 64.9385C161.066 66.223 163.275 67.2685 165.268 68.6543C166.067 69.173 166.354 70.1293 166.577 71.0046C167.145 73.3994 166.82 75.8794 166.444 78.2783C164.482 78.3147 162.521 78.2945 160.576 78.0392C161.099 73.6507 161.099 68.9542 159.008 64.9385Z" fill="#00A886"/>
<path d="M105.911 73.3141C107.751 71.8796 109.935 70.9516 111.9 69.6914C111.187 72.4509 111.317 75.3158 111.734 78.1118C109.639 78.0592 107.548 77.9619 105.474 77.6661C105.474 76.2357 105.044 74.5702 105.911 73.3141Z" fill="#00A886"/>
<path d="M167.25 69.6738C169.207 70.9462 171.399 71.8742 173.243 73.3127C174.106 74.577 173.701 76.2343 173.669 77.6728C171.602 77.9565 169.515 78.0618 167.428 78.1064C167.834 75.3104 167.983 72.4334 167.25 69.6738Z" fill="#00A886"/>
<path d="M99.1328 75.9877C99.7244 74.4276 100.332 72.8756 100.981 71.3398C102.006 71.9841 103.047 72.6082 104.109 73.1917C102.423 74.0751 100.798 75.0719 99.1328 75.9877Z" fill="#00A886"/>
<path d="M175.078 73.2082C176.132 72.6125 177.169 71.9844 178.19 71.332C178.83 72.8678 179.446 74.4117 180.01 75.9799C178.356 75.0722 176.752 74.0754 175.078 73.2082Z" fill="#00A886"/>
<path d="M99.5625 76.8304C101.22 75.8619 102.897 74.9258 104.535 73.9209C104.482 75.1366 104.494 76.3522 104.559 77.5679C102.897 77.2964 101.224 77.11 99.5625 76.8304Z" fill="#00A886"/>
<path d="M174.622 73.917C176.255 74.9219 177.932 75.858 179.594 76.8224C177.937 77.1061 176.263 77.3006 174.602 77.568C174.658 76.3483 174.666 75.1326 174.622 73.917Z" fill="#00A886"/>
<path d="M128.602 83.8811C132.556 81.9401 136.718 79.7884 139.113 75.9023C139.093 78.1594 139.149 80.4124 139.113 82.6695C139.21 84.1688 137.958 85.2183 136.921 86.0895C135.259 87.3781 133.286 88.1683 131.365 88.9868C130.38 87.3255 129.266 85.7086 128.602 83.8811Z" fill="#00A886"/>
<path d="M140.007 75.8398C142.418 79.7502 146.575 82.0478 150.66 83.851C149.768 85.6056 148.828 87.3359 147.783 89.0013C145.688 88.0977 143.512 87.2265 141.761 85.7191C140.967 85.018 140.161 84.163 140.08 83.0527C139.861 80.6538 140.039 78.2428 140.007 75.8398Z" fill="#00A886"/>
<path d="M131.867 89.8024C134.497 88.7123 137.119 87.44 139.125 85.3652C139.023 87.756 139.323 90.1792 138.983 92.5457C138.136 93.7533 136.673 94.2679 135.401 94.9041C134.169 93.2386 132.99 91.5408 131.867 89.8024Z" fill="#00A886"/>
<path d="M140.008 85.3125C142.005 87.4277 144.647 88.7123 147.298 89.8064C146.175 91.5407 145 93.2386 143.768 94.8959C142.484 94.2273 140.83 93.741 140.158 92.3511C139.797 90.0292 140.077 87.6547 140.008 85.3125Z" fill="#00A886"/>
<path d="M136 95.7012C137.054 95.138 138.095 94.5463 139.104 93.9102C139.112 95.8025 139.128 97.6989 139.072 99.5954C138.026 98.3149 137.001 97.0182 136 95.7012Z" fill="#00A886"/>
<path d="M140.008 93.8652C141.029 94.5217 142.095 95.1174 143.173 95.6806C142.164 97.0219 141.138 98.351 140.044 99.6234C139.979 97.7027 140.004 95.7819 140.008 93.8652Z" fill="#00A886"/>
<path d="M144.303 3.87131C145.146 3.68491 146.013 3.83079 146.856 3.9483C157.667 5.55297 167.932 10.7803 175.473 18.7023C176.899 20.23 178.402 21.7333 179.501 23.5244C180.056 24.351 178.905 25.4938 178.184 24.6631C176.794 23.1638 175.615 21.478 174.172 20.0274C166.967 12.5714 157.311 7.48586 147.051 5.91362C146.03 5.75558 145.017 5.57323 144.016 5.33415C144.089 4.83978 144.141 4.34136 144.303 3.87131Z" fill="white"/>
<path d="M99.1328 24.2418C106.998 12.9565 119.9 5.40321 133.532 3.79044C134.269 3.58783 134.61 4.51173 135.12 4.85212C133.706 5.95836 131.838 5.84895 130.177 6.25012C118.924 8.47477 108.526 14.9015 101.588 24.0514C101.163 24.6227 100.575 25.032 99.9878 25.421C99.7731 25.1292 99.3476 24.5376 99.1328 24.2418Z" fill="white"/>
<path d="M127.586 12.2264C128.218 12.044 128.871 11.9306 129.531 11.9062C129.932 12.9274 128.684 12.9477 128.109 13.2354C122.14 14.9535 116.54 18.0048 111.92 22.1664C110.976 22.9768 110.141 24.0628 108.82 24.233C109.136 23.5482 109.485 22.8634 110.056 22.3568C114.996 17.6685 121.054 14.1593 127.586 12.2264Z" fill="white"/>
<path d="M149.375 11.9395C151.203 11.9597 152.925 12.6283 154.614 13.2564C159.967 15.2785 164.919 18.3743 169.06 22.3252C169.648 22.852 170.021 23.5449 170.321 24.2702C169.417 24.092 168.704 23.5287 168.068 22.9128C163.335 18.427 157.504 15.1123 151.243 13.305C150.449 13.1146 149.675 12.7823 149.375 11.9395Z" fill="white"/>
<path d="M119.364 21.5354C121.471 20.2671 123.611 18.9055 126.05 18.3828C125.507 19.8457 123.818 20.0442 122.638 20.7695C120.483 21.734 118.74 23.4359 116.516 24.2544C116.937 22.8848 118.27 22.2729 119.364 21.5354Z" fill="white"/>
<path d="M153.094 18.8535C154.5 18.3915 155.756 19.2749 156.955 19.8746C158.661 20.8188 160.371 21.7872 161.923 22.9786C162.454 23.2906 162.556 23.9146 162.762 24.4455C161.072 23.6999 159.654 22.4883 158.05 21.5927C156.433 20.6121 154.63 19.9719 153.094 18.8535Z" fill="white"/>
<path d="M183.305 33.0299C184.062 32.7584 185.075 32.4788 185.339 33.5284C190.027 44.2383 190.619 56.638 187.231 67.8017C186.55 69.7914 186.048 71.9066 184.755 73.6126C184.427 73.4302 183.775 73.0655 183.451 72.8832C184.273 70.3424 185.355 67.8828 185.971 65.2732C188.22 56.7352 188.001 47.5894 185.408 39.1528C184.816 37.07 183.815 35.133 183.305 33.0299Z" fill="white"/>
<path d="M94.1854 73.7391C88.3948 60.9463 88.257 45.625 94.1732 32.8525C94.6838 33.0308 95.1741 33.2618 95.636 33.5455C95.4132 34.911 94.7851 36.1551 94.3434 37.4518C90.976 46.9987 90.7937 57.6114 93.7801 67.2758C94.2826 69.1844 95.2551 70.9431 95.713 72.8557C95.9481 73.8201 94.781 73.5932 94.1854 73.7391Z" fill="white"/>
<path d="M98.0473 63.1829C96.3859 55.9863 96.4831 48.3236 98.6227 41.2363C99.4372 41.5483 99.5425 42.2007 99.2548 42.9585C97.6056 49.5311 97.5286 56.5171 99.19 63.0979C99.3034 63.7786 99.6317 64.5526 99.0482 65.128C98.3269 64.7309 98.258 63.8759 98.0473 63.1829Z" fill="white"/>
<path d="M179.75 41.6587C179.945 41.61 180.334 41.5087 180.528 41.4561C182.57 47.6113 182.68 54.3217 181.63 60.6877C181.278 62.3045 181.217 64.1442 179.969 65.3882C179.612 64.0429 180.082 62.7219 180.374 61.4212C181.448 56.1209 181.448 50.6221 180.443 45.3137C180.2 44.0981 179.807 42.9067 179.75 41.6587Z" fill="white"/>
<path d="M102.429 58.3495C101.943 54.7795 101.692 51.015 102.668 47.5059C103.491 48.3811 103.175 49.5644 103.098 50.6179C102.822 53.11 103.017 55.6143 103.296 58.0942C103.081 58.159 102.644 58.2887 102.429 58.3495Z" fill="white"/>
<path d="M175.898 48.2591C176.154 48.251 176.656 48.2348 176.911 48.2227C177.07 51.7845 177.69 55.5612 176.401 58.9812C176.227 58.3653 175.915 57.7615 176.004 57.105C176.308 54.1631 176.279 51.1929 175.898 48.2591Z" fill="white"/>
<path d="M99.5703 81.5605C100.259 81.5808 101.07 81.4998 101.455 82.217C108.441 91.3709 118.794 97.9314 130.112 100.152C131.801 100.513 133.532 100.667 135.201 101.12C135.088 101.651 134.97 102.186 134.853 102.721C121.27 101.607 108.376 94.3614 100.105 83.5664C99.5663 83.0274 99.5906 82.2575 99.5703 81.5605Z" fill="white"/>
<path d="M176.45 83.8259C177.164 82.9871 177.759 82.043 178.562 81.2811C179.105 81.0988 179.554 81.2447 179.915 81.7147C179.919 82.355 179.607 82.9061 179.23 83.3964C171.944 92.9555 161.109 99.751 149.301 102.045C147.822 102.304 146.339 102.729 144.827 102.612C144.612 102.13 144.466 101.619 144.312 101.121C145.411 100.805 146.537 100.606 147.664 100.416C158.819 98.5515 169.246 92.5462 176.45 83.8259Z" fill="white"/>
<path d="M116.25 82.1514C117.66 82.3297 118.722 83.3103 119.873 84.0437C121.684 85.2553 123.661 86.1873 125.643 87.0829C125.606 87.3017 125.529 87.7474 125.493 87.9663C122.709 86.9694 120.14 85.462 117.721 83.7804C117.097 83.3711 116.639 82.7754 116.25 82.1514Z" fill="white"/>
<path d="M160.933 82.9455C161.468 82.4876 162.149 82.3782 162.838 82.4147C160.313 85.0932 156.849 86.6897 153.486 88.0553C153.477 87.8162 153.461 87.334 153.453 87.095C156.099 86.013 158.612 84.611 160.933 82.9455Z" fill="white"/>
<path d="M108.773 82.298C110.208 82.1846 111.006 83.4772 111.979 84.2836C115.82 87.7198 120.33 90.4105 125.165 92.2015C126.761 92.8134 128.479 93.1417 129.966 94.0291C129.306 94.252 128.625 94.6085 127.936 94.2722C121.388 92.4082 115.326 88.9355 110.342 84.3079C109.705 83.7365 109.199 83.0355 108.773 82.298Z" fill="white"/>
<path d="M166.743 84.7162C167.873 83.7882 168.797 82.4915 170.293 82.1309C170.029 82.8846 169.636 83.5977 169.032 84.1286C164.121 88.8048 158.067 92.2532 151.576 94.1942C150.939 94.3806 150.279 94.486 149.618 94.4576C149.594 93.8093 149.967 93.4243 150.562 93.3311C156.491 91.6738 162.087 88.7521 166.743 84.7162Z" fill="white"/>
<path d="M0.427169 116.069C4.79947 114.428 9.3987 118.768 9.30145 123.128C9.28119 131.649 9.15962 140.171 9.26093 148.693C9.3055 151.258 10.1281 154.022 12.2393 155.647C14.938 157.644 18.974 157.681 21.6525 155.622C24.4607 153.616 25.9032 150.253 26.5678 146.971C27.0135 143.668 26.9771 140.013 25.0604 137.14C23.4922 134.762 20.7286 133.526 18.0136 133.023C15.9268 132.529 13.7507 132.837 11.6801 132.286C11.3802 131.09 11.1533 129.777 11.753 128.631C13.0011 126.029 16.0726 124.919 18.7957 124.862C24.4323 124.574 30.0284 127.763 32.7028 132.723C34.8829 136.852 35.5069 141.671 35.2071 146.286C34.7735 151.623 33.0148 157.182 28.914 160.841C24.2337 164.962 17.5476 166.547 11.4653 165.38C7.713 164.671 4.26459 162.365 2.29523 159.079C0.718926 156.595 0.0179003 153.637 0.00169158 150.715C-0.00641278 140.033 0.0178981 129.348 0.00574154 118.666C0.00574154 117.779 0.22456 116.92 0.427169 116.069Z" fill="white"/>
<path d="M181.976 125.137C187.35 124.448 193.233 124.87 197.764 128.136C203.015 131.815 205.499 138.404 205.483 144.648C205.706 150.431 204.061 156.598 199.79 160.703C196.115 164.342 190.802 165.817 185.737 165.772C181.782 165.643 177.661 164.516 174.764 161.692C170.63 157.802 170.205 151.083 172.729 146.208C174.715 142.428 178.925 140.284 183.067 139.915C185.854 139.745 188.654 139.891 191.446 139.818C192.403 139.83 193.404 139.725 194.332 140.033C195.142 140.596 195.174 141.702 195.061 142.59C194.785 144.685 193.246 146.468 191.341 147.299C188.59 148.36 185.51 147.493 182.75 148.474C179.448 149.62 179.436 154.933 182.459 156.424C184.931 157.721 187.986 157.324 190.437 156.173C195.106 153.924 197.804 148.534 197.298 143.445C197.164 140.078 195.474 136.609 192.31 135.146C187.601 132.954 182.244 133.558 177.207 133.46C176.445 133.42 175.404 133.371 175.096 132.536C174.638 130.713 175.169 128.622 176.575 127.342C178.034 125.976 180.052 125.445 181.976 125.137Z" fill="white"/>
<path d="M52.9481 125.223C56.5788 124.578 60.6513 124.659 63.7796 126.843C65.5868 128.063 66.6283 130.653 65.6152 132.679C65.0276 133.817 63.5729 133.339 62.5477 133.4C58.0984 133.027 53.3979 134.02 49.8279 136.796C47.5425 138.546 46.0148 141.277 45.8811 144.171C45.7393 147.639 46.7604 151.157 48.7338 154.013C50.2048 156.157 52.6158 157.806 55.2821 157.818C57.4501 157.912 59.5491 156.793 60.8944 155.128C62.3735 153.296 63.2204 151.027 63.6296 148.729C64.4725 144.519 63.0178 140.301 63.2285 136.074C63.2042 135.24 63.812 134.478 64.6184 134.291C66.1704 134 67.8723 134.255 69.1649 135.215C70.9317 136.484 71.7745 138.631 72.2284 140.682C72.8524 143.838 73.0712 147.1 72.7552 150.306C71.4666 155.821 67.8804 160.849 62.8921 163.597C60.1853 165.116 57.0651 165.805 53.9692 165.647C49.1836 165.684 44.5074 163.301 41.5858 159.536C38.2994 155.351 36.8974 149.888 37.1648 144.616C37.3472 138.724 39.7582 132.679 44.4709 128.967C46.9144 127.014 49.8806 125.762 52.9481 125.223Z" fill="white"/>
<path d="M86.1612 125.224C91.2264 124.308 96.7252 125.118 101.033 128.044C104.57 130.406 106.787 134.341 107.804 138.405C108.841 142.417 108.598 146.587 108.647 150.692C108.643 154.756 108.708 158.82 108.679 162.885C108.667 163.865 108.513 165.231 107.362 165.506C105.527 165.827 103.496 165.539 102.009 164.347C99.8292 162.69 98.8607 159.87 98.9094 157.199C98.9782 153.151 98.881 149.103 99.0917 145.059C99.0877 142.287 98.7797 139.22 96.8265 137.08C95.076 135.05 92.3529 133.932 89.6785 134.219C87.8185 134.357 85.5007 134.888 84.751 136.825C84.3823 138.458 84.362 140.152 84.4106 141.821C84.7672 148.56 84.0905 155.307 84.4714 162.05C84.4957 163.043 84.5079 164.202 83.7663 164.972C83.118 165.664 82.1009 165.685 81.2216 165.636C78.4458 165.502 76.0469 163.355 75.2041 160.773C74.4706 158.577 74.6206 156.231 74.6246 153.95C74.6408 151.522 74.5841 149.091 74.7624 146.672C74.9934 141.959 74.2964 137.08 75.8767 132.534C77.5179 128.352 81.9631 126.046 86.1612 125.224Z" fill="white"/>
<path d="M119.36 125.997C125.779 123.833 133.356 124.911 138.604 129.323C145.825 122.787 158.273 123.541 164.704 130.827C168.084 134.705 169.003 140.025 169.267 145.005C169.453 150.792 169.299 156.587 169.307 162.377C169.279 163.451 169.291 164.768 168.282 165.437C165.454 166.239 162.236 164.817 160.786 162.288C159.7 160.525 159.554 158.398 159.574 156.38C159.615 152.591 159.7 148.802 159.687 145.014C159.651 142.647 159.521 140.139 158.265 138.064C156.798 135.718 154.128 134.012 151.299 134.21C149.204 134.219 146.502 134.62 145.489 136.719C144.743 139.413 144.95 142.266 144.994 145.034C145.181 150.707 145.035 156.384 145.1 162.057C145.071 163.228 145.197 164.829 143.916 165.416C141.092 166.219 137.676 165.161 136.258 162.47C134.949 160.29 134.823 157.664 134.888 155.185C134.904 151.246 135.05 147.307 134.993 143.368C134.945 140.114 133.336 136.707 130.382 135.142C128.469 134.06 126.143 134.024 124.04 134.458C122.274 134.83 120.58 136.204 120.511 138.129C119.765 146.318 120.657 154.544 120.369 162.75C120.308 163.528 120.239 164.351 119.83 165.043C118.935 165.915 117.565 165.842 116.439 165.566C113.715 165.035 111.596 162.693 110.944 160.055C110.474 158.191 110.632 156.254 110.611 154.358C110.648 149.767 110.534 145.176 110.721 140.593C110.948 137.736 110.928 134.774 112.03 132.079C113.424 129.093 116.353 127.123 119.36 125.997Z" fill="white"/>
<path d="M220.193 125.166C225.064 124.554 230.238 125.6 234.23 128.537C237.784 131.151 239.883 135.345 240.713 139.604C241.471 143.117 241.297 146.728 241.333 150.298C241.329 154.488 241.382 158.678 241.366 162.868C241.354 163.86 241.183 165.206 240.045 165.514C238.156 165.854 236.057 165.53 234.558 164.274C232.722 162.754 231.653 160.379 231.649 158.005C231.62 153.284 231.75 148.563 231.734 143.843C231.73 140.941 230.757 137.845 228.403 135.998C225.761 133.846 221.883 133.846 218.905 135.272C217.584 135.969 217.13 137.554 217.178 138.952C217.162 147.06 217.17 155.168 217.158 163.277C217.199 164.201 216.647 165.129 215.78 165.477C214.305 166.138 212.632 165.518 211.27 164.861C208.535 163.411 207.344 160.161 207.4 157.207C207.429 151.12 207.433 145.034 207.546 138.947C207.81 135.799 208.069 132.322 210.306 129.875C212.851 127.119 216.514 125.592 220.193 125.166Z" fill="white"/>
<path d="M255.661 126.2C259.567 124.831 264.013 124.284 267.964 125.767C269.86 126.476 271.716 127.882 272.133 129.973C272.263 130.953 272.38 132.112 271.708 132.931C270.999 133.762 269.783 133.369 268.839 133.413C264.199 133.024 259.247 134.106 255.637 137.165C253.234 139.171 251.913 142.336 252.103 145.452C252.294 148.678 253.339 151.907 255.313 154.493C256.788 156.413 259.065 157.832 261.541 157.836C263.81 157.937 265.982 156.697 267.327 154.914C269.033 152.673 269.807 149.869 270.099 147.101C270.391 142.964 268.883 138.819 269.755 134.706C271.473 133.993 273.531 134.013 275.116 135.062C277.085 136.302 278.013 138.608 278.483 140.792C279.131 143.912 279.261 147.142 278.998 150.311C277.612 156.324 273.454 161.778 267.757 164.291C263.247 166.313 257.857 166.248 253.412 164.084C249.789 162.342 246.998 159.157 245.377 155.514C242.917 149.999 242.755 143.544 244.627 137.83C246.349 132.574 250.414 128.076 255.661 126.2Z" fill="white"/>
<path d="M34 174.689C37.1972 174.693 40.3943 174.677 43.5956 174.701C43.5915 175.005 43.5875 175.617 43.5875 175.925C40.832 175.937 38.0765 175.913 35.321 175.945C35.321 178.676 35.321 181.404 35.321 184.135C37.8172 184.155 40.3133 184.143 42.8094 184.147C42.8094 184.459 42.8094 185.083 42.8094 185.391C40.3133 185.395 37.8172 185.387 35.321 185.403C35.321 187.186 35.321 188.973 35.321 190.76C34.9928 190.76 34.3323 190.756 34.004 190.756C34 185.399 34.0041 180.042 34 174.689Z" fill="white"/>
<path d="M79.4922 174.768C79.9541 174.72 80.4201 174.679 80.8861 174.639C80.8821 177.589 80.9186 180.543 80.8618 183.493C82.5111 182.496 85.1247 182.354 86.077 184.352C86.6808 186.418 86.2431 188.635 86.3606 190.762C86.0446 190.758 85.4165 190.754 85.1004 190.754C85.0518 188.546 85.3719 186.268 84.6182 184.141C83.4188 184.06 81.7857 183.797 81.1617 185.142C80.6187 186.957 80.9874 188.91 80.8902 190.787C80.4242 190.75 79.9582 190.718 79.4962 190.685C79.5206 185.381 79.5043 180.073 79.4922 174.768Z" fill="white"/>
<path d="M177.961 174.707C180.429 174.712 183.16 174.347 185.328 175.81C187.848 177.459 188.294 181.077 187.091 183.659C186.458 184.972 185.186 185.762 183.966 186.463C185.194 187.881 186.389 189.332 187.613 190.758C187.014 190.742 186.418 190.734 185.826 190.722C184.72 189.384 183.593 188.059 182.487 186.722C181.442 186.759 180.4 186.791 179.359 186.819C179.363 188.136 179.363 189.453 179.359 190.774C179.01 190.758 178.309 190.726 177.961 190.71C177.969 185.377 177.965 180.044 177.961 174.707ZM179.371 175.899C179.359 179.104 179.359 182.309 179.371 185.515C181.328 185.454 183.622 185.693 185.137 184.173C186.872 182.334 186.835 179.064 185.093 177.244C183.561 175.806 181.32 175.923 179.371 175.899Z" fill="white"/>
<path d="M241.57 178.582C241.89 178.57 242.539 178.549 242.863 178.537C242.956 179.996 242.952 181.463 242.956 182.93C243.56 182.926 244.172 182.922 244.784 182.926C244.784 183.234 244.784 183.85 244.784 184.162C244.168 184.157 243.556 184.153 242.948 184.157C242.948 186.034 242.92 187.914 243.005 189.79C243.556 189.644 244.103 189.498 244.658 189.352C244.796 189.648 245.08 190.236 245.217 190.528C244.156 190.961 243.037 190.981 241.959 190.604C241.441 188.497 241.554 186.321 241.574 184.174C241.331 184.166 240.841 184.153 240.594 184.145C240.594 183.845 240.598 183.238 240.598 182.934C240.841 182.93 241.327 182.922 241.57 182.918C241.566 181.471 241.566 180.024 241.57 178.582Z" fill="white"/>
<path d="M48.1484 182.967C49.7815 183.02 51.4145 182.679 53.0394 182.999C52.5329 184.722 50.1502 183.518 49.6477 185.216C49.1858 187.015 49.5059 188.916 49.4289 190.759C48.9994 190.755 48.5739 190.755 48.1484 190.759C48.1484 188.162 48.1525 185.564 48.1484 182.967Z" fill="white"/>
<path d="M57.271 184.275C58.5191 182.557 61.2786 182.192 62.8468 183.671C63.9166 184.559 64.107 186.01 64.3826 187.286C62.1052 187.318 59.8279 187.258 57.5546 187.347C58.0814 188.263 58.5434 189.478 59.7347 189.669C61.0395 190.098 62.243 189.32 63.2358 188.566C63.4992 188.887 63.7626 189.211 64.03 189.539C62.6523 190.649 60.8085 191.456 59.0499 190.742C56.4443 189.928 55.5245 186.317 57.271 184.275ZM57.6316 186.078C59.4267 186.139 61.23 186.143 63.0291 186.078C62.4902 185.13 61.8337 183.886 60.5411 184.02C59.1147 183.757 58.207 184.972 57.6316 186.078Z" fill="white"/>
<path d="M68.9195 185.223C68.4535 182.228 73.7456 181.827 73.9563 184.704C72.6961 184.882 71.6345 183.784 70.3256 184.019C70.3459 184.587 70.1432 185.494 70.9172 185.664C72.2423 186.321 74.3373 186.572 74.552 188.371C74.8114 190.069 72.9636 191.188 71.4562 190.985C69.9933 191.025 68.9762 189.891 68.2266 188.789C68.49 188.659 69.0248 188.4 69.2882 188.274C69.7542 188.716 70.1757 189.222 70.7187 189.583C71.598 189.988 72.5381 189.514 73.4093 189.332C73.2553 186.694 69.426 187.638 68.9195 185.223Z" fill="white"/>
<path d="M91.9014 182.771C92.416 182.934 92.9225 183.112 93.425 183.314C95.0094 182.52 97.4002 182.435 98.316 184.246C99.0616 186.333 98.5753 188.615 98.7009 190.783C98.239 190.75 97.777 190.714 97.3191 190.685C97.2421 188.493 97.6595 186.196 96.845 184.097C95.6456 184.064 93.9193 183.813 93.425 185.255C92.9428 187.034 93.271 188.927 93.194 190.754C92.7523 190.754 92.3106 190.754 91.873 190.758C91.8811 188.096 91.8406 185.434 91.9014 182.771Z" fill="white"/>
<path d="M104.097 188.959C102.444 186.308 104.685 182.321 107.898 182.767C110.245 182.844 111.379 185.222 111.529 187.281C109.252 187.326 106.979 187.24 104.705 187.366C105.244 188.347 105.816 189.607 107.104 189.708C108.348 190.045 109.446 189.287 110.37 188.561C110.585 188.76 111.006 189.165 111.221 189.368C109.406 191.564 105.516 191.576 104.097 188.959ZM104.738 186.069C106.561 186.142 108.385 186.142 110.212 186.077C109.645 185.072 108.895 183.816 107.538 184.015C106.168 183.833 105.398 185.109 104.738 186.069Z" fill="white"/>
<path d="M116.165 185.134C115.881 183.59 117.534 182.528 118.916 182.763C120.071 182.731 120.764 183.772 121.501 184.485C120.606 185.065 119.84 184.708 119.196 184.011C118.341 184.092 117.088 183.95 117.396 185.235C118.604 186.07 120.197 186.232 121.278 187.261C122.17 188.452 121.623 190.478 120.079 190.819C118.207 191.516 116.363 190.389 115.391 188.821C115.658 188.683 116.185 188.412 116.448 188.274C116.963 188.756 117.421 189.356 118.085 189.648C118.888 189.911 119.71 189.534 120.496 189.392C120.703 186.641 116.392 187.686 116.165 185.134Z" fill="white"/>
<path d="M126.701 183.749C127.523 183.255 128.382 182.602 129.407 182.76C130.489 182.744 131.182 183.668 131.904 184.337C131.596 184.511 130.976 184.868 130.668 185.046C130.489 184.799 130.129 184.3 129.95 184.053C129.314 184.065 128.682 184.086 128.054 184.118C128.001 184.527 127.953 184.941 127.908 185.358C129.399 186.176 131.92 186.359 132.22 188.401C132.507 190.65 129.594 191.542 127.904 190.711C126.927 190.31 125.558 189.102 126.737 188.093C127.252 188.563 127.718 189.106 128.293 189.515C129.136 190.022 130.112 189.54 130.988 189.386C130.882 188.924 130.846 188.442 130.647 188.016C129.509 187.173 127.896 187.112 126.952 186.002C126.579 185.321 126.761 184.491 126.701 183.749Z" fill="white"/>
<path d="M147.37 182.846C150.276 182.047 153.116 185.164 152.197 187.996C151.54 190.772 147.739 191.983 145.648 190.006C143.136 188.012 144.189 183.445 147.37 182.846ZM147.383 184.122C145.324 184.775 144.899 187.802 146.532 189.139C147.978 190.48 150.624 189.568 150.916 187.611C151.573 185.536 149.486 183.336 147.383 184.122Z" fill="white"/>
<path d="M158.867 183.328C159.779 182.987 160.747 182.594 161.74 182.817C163.032 183.008 164.07 184.227 164.074 185.536C164.163 187.275 164.086 189.017 164.098 190.759C163.669 190.755 163.239 190.755 162.814 190.755C162.793 189.017 162.911 187.27 162.753 185.536C162.708 183.316 158.996 183.652 158.725 185.589C158.445 187.303 158.603 189.045 158.575 190.772C158.243 190.759 157.578 190.735 157.25 190.723C157.266 188.077 157.234 185.431 157.274 182.789C157.809 182.935 158.348 183.117 158.867 183.328Z" fill="white"/>
<path d="M192.339 184.455C193.531 182.567 196.456 182.153 198.089 183.697C199.151 184.573 199.309 186.011 199.516 187.284C197.263 187.324 195.01 187.259 192.761 187.344C193.263 188.321 193.79 189.561 195.046 189.699C196.315 190.063 197.461 189.306 198.418 188.576C198.633 188.775 199.062 189.176 199.281 189.374C197.988 190.639 196.108 191.457 194.321 190.764C191.764 189.994 190.767 186.558 192.339 184.455ZM192.789 186.08C194.601 186.145 196.416 186.141 198.231 186.084C197.68 185.184 197.113 183.924 195.845 184.026C194.374 183.714 193.446 184.986 192.789 186.08Z" fill="white"/>
<path d="M205.67 183.7C206.638 183.201 207.656 182.597 208.794 182.768C210.784 182.901 212.466 184.745 212.376 186.751C212.575 188.943 210.65 191.018 208.45 190.994C207.441 191.046 206.574 190.471 205.702 190.058C205.731 191.913 205.719 193.769 205.719 195.629C205.407 195.629 204.783 195.633 204.471 195.637C204.471 191.395 204.466 187.156 204.471 182.918C204.787 182.922 205.419 182.93 205.735 182.934C205.719 183.124 205.686 183.509 205.67 183.7ZM207.396 184.162C205.001 184.976 205.155 189.032 207.627 189.648C209.41 190.24 211.286 188.611 211.092 186.779C211.205 184.867 209.147 183.485 207.396 184.162Z" fill="white"/>
<path d="M217.666 184.255C218.971 182.435 221.941 182.205 223.453 183.886C224.34 184.79 224.502 186.103 224.754 187.286C222.484 187.318 220.215 187.262 217.946 187.347C218.44 188.299 218.939 189.523 220.163 189.681C221.463 190.086 222.643 189.292 223.631 188.546C223.887 188.874 224.146 189.203 224.405 189.539C223.019 190.653 221.168 191.472 219.405 190.726C216.82 189.892 215.924 186.285 217.666 184.255ZM217.983 186.078C219.786 186.139 221.593 186.143 223.396 186.078C222.845 185.155 222.262 183.898 220.969 184.02C219.53 183.74 218.594 184.976 217.983 186.078Z" fill="white"/>
<path d="M229.937 183.991C231.384 182.176 234.99 182.265 235.626 184.769C235.934 186.763 235.711 188.801 235.752 190.815C235.209 190.742 234.678 190.677 234.147 190.609C232.802 190.998 231.193 191.261 230.042 190.268C228.754 189.324 228.875 187.103 230.298 186.346C231.655 185.693 233.223 185.916 234.686 185.762C234.277 185.11 234.086 183.987 233.106 184.032C231.979 183.756 231.108 184.583 230.338 185.26C229.828 185.094 229.345 184.368 229.937 183.991ZM230.545 187.432C230.537 188.076 230.537 188.72 230.545 189.369C231.72 189.754 232.948 189.754 234.123 189.356C234.285 188.578 234.423 187.792 234.552 187.01C233.203 187.006 231.858 187.116 230.545 187.432Z" fill="white"/>
</svg>
