<svg width="76" height="76" viewBox="0 0 76 76" fill="none" xmlns="http://www.w3.org/2000/svg">
<path d="M66.9296 28.6937C66.4288 27.1254 65.7945 25.603 65.0335 24.1432C62.1237 18.4832 57.5159 13.8755 51.856 10.9656C50.4266 10.2096 48.9361 9.57533 47.4002 9.06956C44.3373 8.08487 41.1372 7.59418 37.92 7.61593C34.7659 7.60784 31.6303 8.09844 28.6293 9.06956C27.0509 9.57022 25.5179 10.2045 24.0472 10.9656C18.4107 13.886 13.8262 18.4927 10.9329 24.1432C10.1719 25.603 9.53757 27.1254 9.03683 28.6937C8.0783 31.6759 7.58793 34.7887 7.58319 37.9211C7.5549 41.1388 8.04575 44.34 9.03683 47.4014C9.53748 48.9799 10.1718 50.5128 10.9329 51.9835C13.8427 57.6435 18.4505 62.2512 24.1104 65.161C25.5811 65.9221 27.1141 66.5564 28.6925 67.0571C31.6935 68.0282 34.8291 68.5188 37.9832 68.5107C41.2004 68.5325 44.4006 68.0418 47.4634 67.0571C49.0317 66.5564 50.5541 65.922 52.014 65.161C57.6739 62.2512 62.2817 57.6435 65.1915 51.9835C65.9526 50.5128 66.5869 48.9799 67.0876 47.4014C68.0251 44.3312 68.4626 41.1302 68.3832 37.9211C68.3785 34.7887 67.8881 31.6759 66.9296 28.6937ZM47.4002 58.9357L46.2626 59.3781C41.0015 61.4427 35.1545 61.4427 29.8934 59.3781C29.5077 59.2774 29.1361 59.1288 28.7873 58.9357C23.5744 56.6924 19.3914 52.577 17.0634 47.4014C16.8703 47.0526 16.7217 46.6811 16.621 46.2953C14.5564 41.0342 14.5564 35.1872 16.621 29.9261C16.621 29.5469 16.9054 29.1677 17.0634 28.7885C19.3413 23.574 23.4905 19.4023 28.6925 17.0962C29.0413 16.9031 29.4129 16.7545 29.7986 16.6538C35.0597 14.5892 40.9067 14.5892 46.1678 16.6538L47.3054 17.0962C52.4631 19.4084 56.5908 23.536 58.9029 28.6937C59.0609 29.0729 59.219 29.4521 59.3454 29.8313C61.4099 35.0924 61.4099 40.9394 59.3454 46.2005C59.2447 46.5863 59.096 46.9578 58.9029 47.3066C56.6428 52.4748 52.5434 56.6192 47.4002 58.9357Z" fill="white"/>
<path d="M41.1444 35.772H34.8242V60.8946H41.1444V35.772Z" fill="white"/>
<path d="M38.0778 29.5469L30.3672 38.8059H45.82L38.0778 29.5469Z" fill="white"/>
<path d="M28.6937 58.9353C29.0424 59.1284 29.414 59.2771 29.7997 59.3777L28.6937 60.4838L24.1115 65.0659L19.9402 69.2372C19.3481 69.8258 18.5472 70.1561 17.7124 70.1561C16.8775 70.1561 16.0766 69.8258 15.4845 69.2372L6.76268 60.5154C6.17411 59.9233 5.84375 59.1224 5.84375 58.2875C5.84375 57.4527 6.17411 56.6517 6.76268 56.0597L16.6221 46.2002C16.715 46.6185 16.8638 47.0224 17.0645 47.401C19.3696 52.5596 23.5164 56.6726 28.6937 58.9353Z" fill="#E6C498"/>
<path d="M69.2039 19.9717L60.4821 28.6935L59.3445 29.8311C59.3445 29.4519 59.0601 29.0727 58.9021 28.6935C56.6131 23.5525 52.5214 19.4271 47.3993 17.096L46.2617 16.6536L56.1212 6.79412C56.415 6.49793 56.7645 6.26284 57.1495 6.10241C57.5346 5.94197 57.9477 5.85937 58.3648 5.85938C58.782 5.85938 59.195 5.94197 59.5801 6.10241C59.9652 6.26284 60.3147 6.49793 60.6085 6.79412L69.2039 15.4844C69.5001 15.7781 69.7352 16.1276 69.8956 16.5127C70.0561 16.8978 70.1387 17.3108 70.1387 17.728C70.1387 18.1452 70.0561 18.5582 69.8956 18.9433C69.7352 19.3284 69.5001 19.6779 69.2039 19.9717Z" fill="#E6C498"/>
<path d="M16.622 29.831C14.5574 35.0921 14.5574 40.9391 16.622 46.2002C16.7149 46.6185 16.8637 47.0225 17.0644 47.4011H3.16008C2.32198 47.4011 1.5182 47.0681 0.925567 46.4755C0.332936 45.8829 0 45.0791 0 44.241V31.8534C0 31.0153 0.332936 30.2116 0.925567 29.6189C1.5182 29.0263 2.32198 28.6934 3.16008 28.6934H17.0644C16.9064 29.0726 16.7484 29.4518 16.622 29.831Z" fill="#E6C498"/>
<path d="M75.9984 31.8539V44.2414C75.9984 45.0795 75.6655 45.8833 75.0728 46.4759C74.4802 47.0685 73.6764 47.4015 72.8383 47.4015H58.9023C59.0954 47.0527 59.2441 46.6811 59.3448 46.2954C61.4093 41.0343 61.4093 35.1873 59.3448 29.9262C59.3448 29.547 59.0603 29.1678 58.9023 28.7886H72.8383C73.6602 28.7882 74.45 29.1081 75.04 29.6804C75.6299 30.2527 75.9737 31.0323 75.9984 31.8539Z" fill="#E6C498"/>
<path d="M28.6939 15.5478L29.7999 16.6539C29.4142 16.7546 29.0426 16.9032 28.6939 17.0963C23.5088 19.3794 19.362 23.5149 17.0647 28.6938C16.9067 29.073 16.7487 29.4522 16.6223 29.8314L15.4847 28.6938L6.76287 19.972C6.46668 19.6782 6.23159 19.3287 6.07116 18.9436C5.91072 18.5585 5.82812 18.1455 5.82812 17.7283C5.82812 17.3111 5.91072 16.8981 6.07116 16.513C6.23159 16.1279 6.46668 15.7784 6.76287 15.4846L15.4847 6.79442C16.0768 6.20585 16.8777 5.87549 17.7126 5.87549C18.5474 5.87549 19.3483 6.20585 19.9404 6.79442L24.1117 10.9657L28.6939 15.5478Z" fill="#E6C498"/>
<path d="M69.205 60.5158L60.5147 69.2376C60.221 69.5338 59.8715 69.7689 59.4864 69.9293C59.1013 70.0898 58.6883 70.1724 58.2711 70.1724C57.8539 70.1724 57.4409 70.0898 57.0558 69.9293C56.6707 69.7689 56.3212 69.5338 56.0274 69.2376L46.168 59.3782L47.3056 58.9357C52.4676 56.6615 56.6007 52.5509 58.9031 47.4014C59.0962 47.0527 59.2448 46.6811 59.3455 46.2954L60.4515 47.4014L65.0337 51.9836L69.205 56.1549C69.7652 56.7426 70.0778 57.5234 70.0778 58.3353C70.0778 59.1473 69.7652 59.9281 69.205 60.5158Z" fill="#E6C498"/>
<path d="M47.402 3.16008V17.096L46.2643 16.6536C41.0032 14.5891 35.1562 14.5891 29.8951 16.6536C29.5094 16.7543 29.1378 16.903 28.7891 17.096V3.16008C28.7891 2.32198 29.122 1.5182 29.7146 0.925567C30.3073 0.332936 31.111 0 31.9491 0L44.2419 0C45.08 0 45.8838 0.332936 46.4764 0.925567C47.069 1.5182 47.402 2.32198 47.402 3.16008Z" fill="#E6C498"/>
<path d="M46.1706 59.378L47.3082 58.9355V72.8399C47.3082 73.678 46.9753 74.4818 46.3826 75.0744C45.79 75.6671 44.9862 76 44.1481 76H31.8554C31.0173 76 30.2135 75.6671 29.6209 75.0744C29.0282 74.4818 28.6953 73.678 28.6953 72.8399V58.9355C29.0441 59.1286 29.4156 59.2773 29.8013 59.378C35.0625 61.4426 40.9095 61.4426 46.1706 59.378Z" fill="#E6C498"/>
<path d="M66.9296 28.6937C66.4288 27.1254 65.7945 25.603 65.0335 24.1432C62.1237 18.4832 57.5159 13.8755 51.856 10.9656C50.4266 10.2096 48.9361 9.57533 47.4002 9.06956C44.3373 8.08487 41.1372 7.59418 37.92 7.61593C34.7659 7.60784 31.6303 8.09844 28.6293 9.06956C27.0509 9.57022 25.5179 10.2045 24.0472 10.9656C18.4107 13.886 13.8262 18.4927 10.9329 24.1432C10.1719 25.603 9.53757 27.1254 9.03683 28.6937C8.0783 31.6759 7.58793 34.7887 7.58319 37.9211C7.5549 41.1388 8.04575 44.34 9.03683 47.4014C9.53748 48.9799 10.1718 50.5128 10.9329 51.9835C13.8427 57.6435 18.4505 62.2512 24.1104 65.161C25.5811 65.9221 27.1141 66.5564 28.6925 67.0571C31.6935 68.0282 34.8291 68.5188 37.9832 68.5107C41.2004 68.5325 44.4006 68.0418 47.4634 67.0571C49.0317 66.5564 50.5541 65.922 52.014 65.161C57.6739 62.2512 62.2817 57.6435 65.1915 51.9835C65.9526 50.5128 66.5869 48.9799 67.0876 47.4014C68.0251 44.3312 68.4626 41.1302 68.3832 37.9211C68.3785 34.7887 67.8881 31.6759 66.9296 28.6937ZM47.4002 58.9357L46.2626 59.3781C41.0015 61.4427 35.1545 61.4427 29.8934 59.3781C29.5077 59.2774 29.1361 59.1288 28.7873 58.9357C23.5744 56.6924 19.3914 52.577 17.0634 47.4014C16.8703 47.0526 16.7217 46.6811 16.621 46.2953C14.5564 41.0342 14.5564 35.1872 16.621 29.9261C16.621 29.5469 16.9054 29.1677 17.0634 28.7885C19.3413 23.574 23.4905 19.4023 28.6925 17.0962C29.0413 16.9031 29.4129 16.7545 29.7986 16.6538C35.0597 14.5892 40.9067 14.5892 46.1678 16.6538L47.3054 17.0962C52.4631 19.4084 56.5908 23.536 58.9029 28.6937C59.0609 29.0729 59.219 29.4521 59.3454 29.8313C61.4099 35.0924 61.4099 40.9394 59.3454 46.2005C59.2447 46.5863 59.096 46.9578 58.9029 47.3066C56.6428 52.4748 52.5434 56.6192 47.4002 58.9357Z" fill="#E6C498"/>
</svg>
