<svg version="1.2" xmlns="http://www.w3.org/2000/svg" viewBox="0 0 75 75" width="75" height="75">
	<title>Layer 2 (2)-svg</title>
	<style>
		.s0 { fill: #ffffff } 
		.s1 { fill: none;stroke: #e6c498;stroke-linecap: round;stroke-miterlimit:10;stroke-width: 5 } 
	</style>
	<path id="Layer" class="s0" d="m66.3 0.5c-4.4 2.1-9.2 3.3-14.1 3.3-4.9 0-9.7-1.2-14.1-3.3l-0.9-0.5c-4.6 2.5-9.8 3.8-15 3.8-5.2 0-10.4-1.3-15-3.8v15q0 7 1.3 13.9 0.1 0.7 0.5 1.3 0.4 0.5 1 0.9 0.6 0.3 1.3 0.4 0.7 0.1 1.3-0.2c0.7-0.2 1.3-0.7 1.6-1.3 0.4-0.7 0.5-1.4 0.4-2.1q-1.2-6.3-1.2-12.8v-6.1q4.3 1 8.8 1c5.2 0 10.3-1 15-3.1 4.7 2 9.8 3.1 15 3.1q4.4 0 8.8-1v6.2c-0.1 9.8-2.2 19.5-6.3 28.5-4.1 8.9-10.1 16.9-17.5 23.3-7.1-6.1-12.9-13.7-17-22.2-0.3-0.7-0.9-1.3-1.6-1.6-0.7-0.3-1.5-0.3-2.2-0.1q-0.6 0.2-1.1 0.7-0.5 0.4-0.8 1-0.2 0.6-0.2 1.3 0 0.6 0.2 1.2c5.3 11 13 20.4 22.7 27.7 9.3-7 16.9-16 22.1-26.5 5.2-10.4 7.9-21.9 7.9-33.5v-15z"/>
	<path id="Layer" fill-rule="evenodd" class="s1" d="m28 34.3l5.8 5.8 14.1-14.1"/>
</svg>