<svg version="1.2" xmlns="http://www.w3.org/2000/svg" viewBox="0 0 75 75" width="75" height="75">
	<title>ارزش_سیستم-یکپارچه_24-24-svg</title>
	<defs>
		<clipPath clipPathUnits="userSpaceOnUse" id="cp1">
			<path d="m0 0h75v75h-75z"/>
		</clipPath>
	</defs>
	<style>
		.s0 { fill: #ffffff } 
		.s1 { fill: none;stroke: #e6c498;stroke-linecap: round;stroke-miterlimit:10;stroke-width: 3 } 
		.s2 { fill: #e6c498 } 
	</style>
	<g id="Clip-Path" clip-path="url(#cp1)">
		<g id="Layer">
			<path id="Layer" class="s0" d="m33.7 49.5l-2.8 2.8-3.1 3.1-3.1 3.1q-0.2 0.2-0.5 0.3-0.3 0.1-0.6 0.1-0.3 0-0.5-0.1-0.3-0.1-0.5-0.3l-6.3-6.4q-0.2-0.2-0.3-0.5-0.1-0.3-0.1-0.6 0-0.3 0.1-0.5 0.1-0.3 0.3-0.5l8.7-9q0.4 1.5 1.3 2.8c1 1.9 2.7 3.5 4.6 4.6q1.3 0.8 2.8 1.1z"/>
			<path id="Layer" class="s0" d="m57.6 25.6l-8.8 8.8q-0.3-1.5-1.1-2.7c-1.1-2-2.7-3.6-4.7-4.7q-1.2-0.8-2.7-1.2l8.8-8.7q0.2-0.2 0.5-0.4 0.3-0.1 0.6-0.1 0.3 0 0.5 0.1 0.3 0.2 0.5 0.4l6.4 6.4c0.3 0.3 0.4 0.6 0.4 1 0 0.4-0.1 0.8-0.4 1.1z"/>
			<path id="Layer" class="s0" d="m25 41q0.4 1.5 1.3 2.8h-12.5c-0.4-0.1-0.7-0.3-1-0.6-0.2-0.3-0.3-0.6-0.3-1v-9.1c0-0.4 0.2-0.8 0.4-1 0.3-0.3 0.7-0.5 1.1-0.5h12.5q-0.9 1.3-1.5 2.8-0.5 1.6-0.5 3.3 0 1.7 0.5 3.3z"/>
			<path id="Layer" class="s0" d="m61.7 33.1v9.1c0 0.4-0.2 0.8-0.5 1.1-0.3 0.3-0.6 0.4-1 0.4h-12.5c1-1.8 1.5-3.9 1.5-6q0.1-1.7-0.4-3.3-0.3-1.5-1.1-2.7h12.5c0.4 0 0.8 0.1 1 0.4 0.3 0.3 0.4 0.6 0.5 1z"/>
			<path id="Layer" class="s0" d="m33.7 25.8q-1.5 0.4-2.8 1.1c-1.9 1.1-3.6 2.8-4.7 4.7q-0.8 1.3-1.2 2.8l-8.7-8.8q-0.2-0.2-0.3-0.5-0.1-0.3-0.1-0.6 0-0.3 0.1-0.6 0.1-0.2 0.3-0.4l6.4-6.5q0.3-0.2 0.5-0.3 0.3-0.1 0.6-0.1 0.3 0 0.6 0.1 0.3 0.1 0.5 0.3z"/>
			<path id="Layer" class="s0" d="m57.6 51.9l-6.4 6.4q-0.2 0.2-0.5 0.3-0.2 0.2-0.5 0.2-0.3 0-0.6-0.2-0.3-0.1-0.5-0.3l-3.1-3.1-3.2-3.1-2.7-2.8q1.5-0.3 2.7-1.1c2.1-1 3.7-2.5 4.9-4.5q0.8-1.2 1.1-2.7l8.8 8.8c0.3 0.3 0.5 0.7 0.5 1.1 0 0.4-0.2 0.7-0.5 1z"/>
			<path id="Layer" class="s0" d="m43 14.5v12.5q-1.2-0.7-2.7-1.1-1.6-0.5-3.3-0.5-1.7 0-3.3 0.5-1.5 0.4-2.8 1.1v-12.5q0-0.3 0.2-0.5 0.1-0.3 0.3-0.5 0.2-0.2 0.5-0.4 0.2-0.1 0.5-0.1h9.1c0.4 0 0.8 0.2 1.1 0.5 0.3 0.3 0.4 0.6 0.4 1z"/>
			<path id="Layer" class="s0" d="m43 48.4v12.5c0 0.4-0.1 0.8-0.4 1.1-0.3 0.3-0.7 0.4-1.1 0.4h-9.1c-0.4 0-0.7-0.1-1-0.4-0.3-0.3-0.5-0.7-0.5-1.1v-12.5q1.3 0.8 2.8 1.2 1.6 0.4 3.3 0.4c2.1 0 4.2-0.5 6-1.5z"/>
			<path id="Layer" fill-rule="evenodd" class="s0" d="m56.3 31.6c1.2 4 1.2 8.2 0 12.1q-0.6 1.6-1.3 3c-1.9 3.7-4.9 6.6-8.5 8.5q-1.5 0.8-3.2 1.3c-3.9 1.2-8.1 1.2-12 0q-1.7-0.5-3.2-1.3c-3.7-1.8-6.7-4.8-8.7-8.5q-0.7-1.4-1.2-3c-1.3-3.9-1.3-8.1 0-12.1q0.5-1.5 1.2-2.9c1.9-3.7 4.8-6.8 8.4-8.7q1.5-0.8 3.1-1.3c3.9-1.1 8.1-1.1 12 0.2q1.6 0.5 3.1 1.2c3.7 1.9 6.6 4.9 8.5 8.6q0.8 1.4 1.3 2.9zm-8.6 12.1c1-1.8 1.5-3.9 1.5-6q0-1.7-0.4-3.3-0.4-1.5-1.2-2.7c-1.1-2-2.7-3.6-4.7-4.7q-1.2-0.8-2.7-1.2-1.6-0.4-3.3-0.4-1.7 0-3.3 0.4-1.5 0.4-2.8 1.2c-1.9 1.1-3.5 2.7-4.6 4.7q-0.8 1.2-1.2 2.7-0.4 1.6-0.4 3.3 0 1.7 0.4 3.3 0.5 1.5 1.3 2.7c1.1 2 2.7 3.6 4.7 4.7q1.2 0.8 2.7 1.1 1.6 0.5 3.3 0.5c2.1 0 4.2-0.6 6.1-1.6 1.9-1.1 3.5-2.7 4.6-4.7z"/>
			<path id="Layer" fill-rule="evenodd" class="s1" d="m20.6 66.2c5 2.9 10.6 4.4 16.4 4.4 5.8 0 11.5-1.5 16.5-4.4 5-2.9 9.2-7 12.1-12 2.9-5 4.4-10.7 4.4-16.5 0-5.8-1.5-11.4-4.4-16.5"/>
			<path id="Layer" fill-rule="evenodd" class="s1" d="m53.4 9.4c-6.2-3.6-13.5-5-20.6-4-7.1 0.9-13.7 4.2-18.8 9.3-5.1 5-8.4 11.6-9.4 18.8-1 7.1 0.4 14.4 3.9 20.6"/>
			<path id="Layer" class="s2" d="m62.4 13.5l-3.5 12.7 15.3-7z"/>
			<path id="Layer" class="s2" d="m11.8 61.5l3.5-12.6-15.3 6.9z"/>
		</g>
	</g>
</svg>