<svg version="1.2" xmlns="http://www.w3.org/2000/svg" viewBox="0 0 75 75" width="75" height="75">
	<title>ارزش_سلامت_24-24-svg</title>
	<defs>
		<clipPath clipPathUnits="userSpaceOnUse" id="cp1">
			<path d="m0 0h74.26v75h-74.26z"/>
		</clipPath>
	</defs>
	<style>
		.s0 { fill: #ffffff } 
		.s1 { fill: #e6c498 } 
	</style>
	<g id="Clip-Path" clip-path="url(#cp1)">
		<g id="Layer">
			<path id="Layer" class="s0" d="m65.3 8.9c-3.9-3.9-9-6.1-14.4-6.1-5.4 0-10.6 2.2-14.4 6.1l-0.9 0.9-0.9-0.9c-3.8-3.9-9-6.1-14.4-6.1-5.4 0-10.5 2.2-14.4 6.1-3.8 3.9-5.9 9.2-5.9 14.7 0 5.5 2.1 10.7 5.9 14.6l0.5 0.5 0.3 0.3c0.5 0.5 1.3 0.7 2 0.7q0.6 0.1 1.2-0.2 0.5-0.2 1-0.7 0.4-0.4 0.6-1 0.3-0.6 0.3-1.2c0-0.7-0.3-1.5-0.8-2.1q-0.1-0.1-0.2-0.1l-0.5-0.5c-2.1-2.2-3.5-4.9-4-7.9-0.5-3-0.1-6 1.2-8.8 1.3-2.7 3.4-4.9 6-6.4 2.6-1.4 5.6-2 8.5-1.6 3.3 0.5 6.3 2 8.6 4.5l0.7 0.6 4.3 4.4 4.9-5c2.3-2.4 5.3-4 8.5-4.5 3-0.4 5.9 0.2 8.5 1.6 2.6 1.5 4.7 3.7 6 6.4 1.3 2.7 1.8 5.8 1.3 8.8-0.5 2.9-1.9 5.7-4 7.8l-25.3 25.8-11.6-11.9c-0.4-0.5-1-0.8-1.6-0.9-0.6-0.1-1.2 0-1.7 0.2-0.6 0.2-1.1 0.6-1.4 1.1-0.4 0.6-0.5 1.2-0.5 1.8q0 0.6 0.2 1.2 0.2 0.6 0.7 1l16 16.3 29.6-30.2c1.9-1.9 3.4-4.2 4.4-6.7 1-2.5 1.6-5.2 1.6-7.9 0-2.7-0.5-5.4-1.5-8-1.1-2.5-2.6-4.8-4.4-6.7z"/>
			<path id="Layer" class="s1" d="m49.7 70c-1.3 0-2.6-0.5-3.5-1.5-1-0.9-1.5-2.3-1.5-3.6v-5.5c0-0.6-0.2-1.1-0.6-1.5-0.4-0.3-0.9-0.6-1.4-0.6h-5.3c-1.4 0-2.7-0.5-3.6-1.5-1-0.9-1.5-2.2-1.5-3.6v-5.7c0-1.3 0.5-2.6 1.5-3.6 0.9-1 2.2-1.5 3.6-1.5h5.3c0.5 0 1-0.2 1.4-0.6 0.4-0.4 0.6-0.9 0.6-1.4v-5.5q0-1 0.4-1.9 0.3-1 1.1-1.7 0.7-0.7 1.6-1.1 0.9-0.4 1.9-0.4h5.6c1.4 0 2.6 0.5 3.6 1.5 0.9 1 1.5 2.3 1.5 3.6v5.5c0 0.5 0.2 1 0.5 1.4 0.4 0.4 0.9 0.6 1.5 0.6h5.3c1.3 0 2.6 0.5 3.5 1.5 1 1 1.5 2.3 1.5 3.6v5.7c0 1.4-0.5 2.7-1.4 3.7-1 1-2.3 1.5-3.6 1.5h-5.3c-0.6 0-1.1 0.2-1.5 0.6-0.3 0.4-0.5 0.9-0.5 1.4v5.5c0 1.3-0.6 2.6-1.5 3.6-1 1-2.2 1.5-3.6 1.5z"/>
			<path id="Layer" fill-rule="evenodd" class="s0" d="m55.3 27.2q1.3 0 2.6 0.5 1.2 0.5 2.1 1.5 0.9 0.9 1.4 2.2 0.5 1.2 0.5 2.5v5.5q0 0.2 0.1 0.3 0.2 0.1 0.4 0.1h5.2q1.3 0 2.5 0.5 1.2 0.6 2.1 1.5 0.9 0.9 1.4 2.2 0.5 1.2 0.5 2.5v5.7c0 1.8-0.6 3.5-1.9 4.7-1.2 1.3-2.9 2-4.6 2h-5.4q-0.2 0-0.3 0.1-0.1 0.2-0.1 0.4v5.5q0 1.3-0.5 2.5-0.5 1.3-1.4 2.2-1 1-2.2 1.5-1.2 0.5-2.5 0.5h-5.6q-1.3 0-2.5-0.5-1.2-0.5-2.2-1.5-0.9-0.9-1.4-2.2-0.5-1.2-0.5-2.5v-5.5q0-0.2-0.1-0.3-0.2-0.1-0.3-0.1h-5.4c-1.7 0-3.4-0.7-4.6-2-1.3-1.3-2-3-2-4.7v-5.8q0-1.3 0.6-2.6 0.5-1.2 1.4-2.2 1-0.9 2.2-1.4 1.2-0.5 2.6-0.5h5.3q0.2 0 0.3-0.1 0.1-0.1 0.1-0.3v-5.5q0-1.3 0.5-2.5 0.5-1.3 1.5-2.2 0.9-1 2.1-1.5 1.2-0.5 2.5-0.5zm-5.8 3.1q-0.7 0-1.3 0.3-0.7 0.3-1.1 0.8-0.5 0.5-0.8 1.2-0.3 0.6-0.3 1.3v5.5c0 0.9-0.3 1.8-1 2.5-0.7 0.7-1.5 1.1-2.5 1.1h-5.3q-0.7 0-1.4 0.2-0.6 0.3-1.1 0.8-0.5 0.5-0.8 1.2-0.2 0.6-0.2 1.3v5.8q0 0.7 0.3 1.3 0.2 0.7 0.8 1.2 0.5 0.5 1.1 0.8 0.7 0.2 1.4 0.2h5.3c1 0 1.9 0.4 2.5 1 0.7 0.7 1.1 1.6 1.1 2.6v5.4q0 0.7 0.2 1.4 0.3 0.6 0.8 1.2 0.5 0.5 1.1 0.7 0.7 0.3 1.4 0.3h5.6q0.7 0 1.3-0.3 0.7-0.2 1.2-0.7 0.5-0.6 0.7-1.2 0.3-0.7 0.3-1.4v-5.4c0-1 0.4-1.9 1.1-2.5 0.6-0.7 1.5-1 2.4-1.1h5.3q0.7 0 1.4-0.2 0.6-0.3 1.1-0.8 0.5-0.5 0.8-1.2 0.3-0.6 0.3-1.3v-5.8q0-0.7-0.3-1.3-0.3-0.7-0.8-1.2-0.5-0.5-1.1-0.8-0.7-0.2-1.4-0.2h-5.3c-0.9 0-1.8-0.4-2.5-1.1-0.6-0.7-1-1.6-1-2.5v-5.5q0-0.7-0.3-1.3-0.2-0.7-0.7-1.2-0.5-0.5-1.2-0.8-0.6-0.3-1.3-0.3z"/>
		</g>
	</g>
</svg>