<svg version="1.2" xmlns="http://www.w3.org/2000/svg" viewBox="0 0 75 75" width="75" height="75">
	<title>ارزش_رضایت_24-24-svg</title>
	<defs>
		<clipPath clipPathUnits="userSpaceOnUse" id="cp1">
			<path d="m0 0h75v75h-75z"/>
		</clipPath>
	</defs>
	<style>
		.s0 { fill: #ffffff } 
		.s1 { fill: #e6c498 } 
	</style>
	<g id="Clip-Path" clip-path="url(#cp1)">
		<g id="Layer">
			<path id="Layer" class="s0" d="m21 38.8h-12.5c-0.8 0-1.6 0.3-2.2 0.9-0.6 0.6-0.9 1.4-0.9 2.2v5.5c0 0.8 0.3 1.6 0.9 2.2 0.6 0.6 1.4 0.9 2.2 0.9 0.8 0 1.6-0.3 2.2-0.9 0.6-0.6 0.9-1.4 0.9-2.2v-2.5h6.4v23.9h-6.5v-2.5c0-0.8-0.3-1.6-0.9-2.2-0.6-0.6-1.4-0.9-2.2-0.9-0.8 0-1.6 0.3-2.2 0.9-0.6 0.6-0.9 1.4-0.9 2.2v5.5c0 0.8 0.3 1.6 0.9 2.2 0.6 0.6 1.4 0.9 2.2 0.9h12.5c0.8 0 1.6-0.3 2.2-0.9 0.6-0.6 0.9-1.4 0.9-2.2v-29.7q0-0.6-0.2-1.2-0.2-0.6-0.6-1.1-0.4-0.5-1-0.7-0.6-0.3-1.2-0.3z"/>
			<path id="Layer" fill-rule="evenodd" class="s0" d="m40.1 28.1c1.4 0 2.8 0.3 4 0.8 1.3 0.6 2.4 1.4 3.3 2.5 1.4 1.8 2.2 4 2.3 6.3q0 1.3-0.2 2.6h0.3c2.5 0 4.9 0.9 6.6 2.7 1.8 1.8 2.8 4.1 2.8 6.6v12.9c0 2.5-1 4.9-2.8 6.6-1.7 1.8-4.1 2.8-6.6 2.8h-19.6c-2.5 0-4.9-1-6.6-2.8-1.8-1.7-2.8-4.1-2.8-6.6v-12.5c0-1.5 0.4-3 1-4.3 0.7-1.4 1.7-2.5 2.9-3.4 2.9-1.9 5.2-4.7 6.5-7.9 0.7-1.9 1.9-3.5 3.4-4.6 1.6-1.1 3.5-1.7 5.5-1.7zm-0.1 6.2c-0.6 0-1.3 0.2-1.8 0.5-0.5 0.4-0.9 0.9-1.1 1.5-1.8 4.6-4.9 8.4-8.9 11.1q-0.6 0.5-0.9 1.1-0.4 0.7-0.4 1.4v12.5c0 0.9 0.4 1.7 1 2.2 0.5 0.6 1.3 1 2.2 1h19.6c0.8 0 1.6-0.4 2.2-1 0.6-0.5 0.9-1.3 0.9-2.2v-12.7c0-0.8-0.3-1.6-0.9-2.2-0.6-0.6-1.4-0.9-2.2-0.9h-4.4q-0.7 0-1.4-0.4-0.6-0.3-1-0.9-0.5-0.6-0.6-1.3-0.1-0.7 0.1-1.4 0.8-2.3 0.9-4.7c0-0.9-0.3-1.8-0.9-2.5q-0.5-0.5-1.1-0.8-0.6-0.3-1.2-0.3z"/>
			<path id="Layer" class="s1" d="m13.2 9.8l3.7 7.5 8.3 1.2-6 5.9 1.4 8.3-7.4-3.9-7.5 3.9 1.4-8.3-6-5.9 8.3-1.2z"/>
			<path id="Layer" class="s1" d="m37.1 0.2l3.8 7.5 8.3 1.2-6 5.9 1.4 8.3-7.5-3.9-7.4 3.9 1.4-8.3-6-5.9 8.3-1.2z"/>
			<path id="Layer" class="s1" d="m61.3 8.8l3.7 7.6 8.3 1.2-6 5.9 1.5 8.3-7.5-3.9-7.5 3.9 1.5-8.3-6.1-5.9 8.3-1.2z"/>
		</g>
	</g>
</svg>