<svg xmlns="http://www.w3.org/2000/svg" viewBox="0 0 12 12"><defs><style>.cls-1{fill:none;}.cls-2{fill:#575756;}</style></defs><g id="Layer_2" data-name="Layer 2"><g id="Variations"><g id="Weight"><rect class="cls-1" width="12" height="12"/><path class="cls-2" d="M8.53,5.6l1,4.4h-7l1-4.4Zm.64-2H2.83a1.2,1.2,0,0,0-1.17.94l-1.33,6A1.2,1.2,0,0,0,1.5,12h9a1.2,1.2,0,0,0,1.17-1.46l-1.33-6A1.2,1.2,0,0,0,9.17,3.6Z"/><path class="cls-2" d="M6,2a.41.41,0,1,1-.41.41A.41.41,0,0,1,6,2M6,0A2.41,2.41,0,1,0,8.41,2.41,2.41,2.41,0,0,0,6,0Z"/></g></g></g></svg>